<mxfile host="www.draw.io" modified="2019-12-13T03:56:07.737Z" agent="Mozilla/5.0 (X11; Linux x86_64) AppleWebKit/537.36 (KHTML, like Gecko) Chrome/78.0.3904.108 Safari/537.36" etag="FvV101cKjBQtIFyIreE_" version="12.3.9" type="github" pages="1">
  <diagram id="zmRDHaUTueT4leKFzzu2" name="Page-1">
    <mxGraphModel dx="2506" dy="1994" grid="1" gridSize="10" guides="1" tooltips="1" connect="1" arrows="1" fold="1" page="1" pageScale="1" pageWidth="850" pageHeight="1100" math="0" shadow="0">
      <root>
        <mxCell id="0"/>
        <mxCell id="1" parent="0"/>
        <mxCell id="b_aVwPkQ-acBbLDw-5HQ-26" value="" style="rounded=1;whiteSpace=wrap;html=1;" vertex="1" parent="1">
          <mxGeometry x="170" y="-30" width="120" height="60" as="geometry"/>
        </mxCell>
        <mxCell id="b_aVwPkQ-acBbLDw-5HQ-1" value="" style="shape=image;verticalLabelPosition=bottom;labelBackgroundColor=#ffffff;verticalAlign=top;aspect=fixed;imageAspect=0;image=data:image/jpeg,/9j/4AAQSkZJRgABAQEASABIAAD/2wBDAAMCAgICAgMCAgIDAwMDBAYEBAQEBAgGBgUGCQgKCgkICQkKDA8MCgsOCwkJDRENDg8QEBEQCgwSExIQEw8QEBD/2wBDAQMDAwQDBAgEBAgQCwkLEBAQEBAQEBAQEBAQEBAQEBAQEBAQEBAQEBAQEBAQEBAQEBAQEBAQEBAQEBAQEBAQEBD/wAARCAKLAooDAREAAhEBAxEB/8QAHQABAAEFAQEBAAAAAAAAAAAAAAYDBAUHCAIBCf/EAE4QAAIBAgMFBAUICAQEBQMFAAABAgMEBQYRBxIhMUETUWFxCCKBkaEUIzJCUmKxwRUzQ3KCkqLRFlNj4TRzssIkJUST8FSz0nWDlKPD/8QAGwEBAAIDAQEAAAAAAAAAAAAAAAQFAgMGAQf/xABCEQEAAgECBAIIBQQBAgQEBwAAAQIDBBEFEiExQVETIjJhcYGR0QahscHhFDNC8FIj8RU0Q3IWJGLSNVOCkrLC4v/aAAwDAQACEQMRAD8A/TsAAAAAAAAAAAAAAAAAAAAAAAAAAAAAAAAAAAAAAAAAAAAAAAAAAAAAAAAAAAAAAAAAAAAAAAAAAAAAAAAAAAAAAAAAAAAAAAAAAAAAAAAAAAAAAAAAAAAAAAAAAAAAAAAAAAAAAAAAAAAAAAAAAAAAAAAAAAAAAAAAAAAAAAAAAAAAAAAAAAAAAAAAAAAAAAAAAAAAAAAAAAAAAAAAAAAAAAAAAAAAAAAAAAAAAAAAAAAAAAAAAAAAAAAAAAAAAAAAAAAAAAAAAAAAAAAAAAAAAAAAAAAAAAAAAAAAAAAAAAAAAAAAAAAAAAAAAAAAAAAAAAAAAAAAAAAAAAAAAAAAAAAAAAAAAAAAAAAAAAAAAAAAAAAAAAAAAAAAAAAAAAAAAAAAAAAAAAAAAAAAAAAAAAAAAAAAAAAAAAAAAAAAAAAAAAAAAAAAAAAAAAAAAAAAAAAAAAABhM3ZxwHI+ESxrMF06NDeVOEYR3p1ZvlGK6vRPw4cTRqNTj0tOfJPRje8UjeWCyZtjyNne4VjhuITtb2T0ha3kVTqVP3eLjLyT18CPpuJafVTy1nafKWFMtb9ITgntoAAAAAAAAAAAAAAAAAAAAAAAAAAAAAAAAAAAAAAAAAAAAAAAAAAAAAAAAAAAAAAAAAAAAAAAAAAAAAAAAAAAAAAAAAAABrbbls8xbP+XbWGBThK9w6tKtChOW6q0ZR0aTfBS4LTXhzKzimjvq8Uej7x+bTmxzkjo5QxHDMUwK/nYYpZ3Fld0JetTqxcJxfR/wBmchel8VuW8bTCDMTWdpbs2S+kDWspUcuZ9uZVbdtQoYlN6zp9yq/aj97muuq4q94fxea7YtRPTz+/3SMWfbpd0TSq069OFajUjUp1IqUJxeqknxTTXNHSRMTG8Jj2egAAAAAAAAAAAAAAAAAAAAAAAAAAAAAAAAAAAAAAAAAAAAAAAAAAAAAAAAAAAAAAAAAAAAAAAAAAAAAAAAAAAAAAAAAACLZ+2c5d2hYa7PF6Cp3NOL+TXlOK7Wi/B9Y98Xwfg9GRNXo8Wsry37+E+TC+OMkdXJGechZgyBi0sMxq2fZybdvdQT7KvHvi+/vT4r3HHarSZNJflyR8J80C+Occ7SmexzbNeZMu6WAZguJ18BrS3U5aylZtv6Ueu53x9q46pzuG8StppjHknen6fw2Ys3J0ns6qo1qVxShcUKsalKrFThOD1jKLWqaa5po62JiY3hOez0AAAAAAAAAAAAAAAAAAAAAAAAAAAAAAAAAAAAAAAAAAAAAAAAAAAAAAAAAAAAAAAAAAAAAAAAAAAAAAAAAAAAAAAAAAAYrM2WMGzfg9fA8dtI17asuHSVOXScH0kuj/AC1Rpz4Kaik48kbwxtWLxtLjbaDkXFNn+YauC4gnUpP5y1uFHSNelrwku5rk10fho3xWs0t9HkmlvlPnCvyUnHO0tp+j3tWdpWpZBzDct0K0tMNrTf6ub/Yt9z+r3Ph1WltwfX8sxp8k9PD7fZuwZdvUl0WdKmAAAAAAAAAAAAAAAAAAAAAAAAAAAAAAAAAAAAAAAAAAAAAAAAAAAAAAAAAAAAAAAAAAAAAAAAAAAAAAAAAAAAAAAAAAAAET2l5AsNoeW6uE3G7Tu6WtWyuGuNKrp1+6+TXt5pEPW6Susxck9/CWvJjjJGzjG8tL7BsRrWN3Tnb3llWlTqR10lTqRej9qaOItW2O01npMK6YmJ2dlbKM5f44yTY4vWmpXlNO2vP+dDRN/wAS0l/Edtw/U/1WCLz37T8Vjivz13TAmtgAAAAAAAAAAAAAAAAAAAAAAAAAAAAAAAAAAAAAAAAAAAAAAAAAAAAAAAAAAAAAAAAAAAAAAAAAAAAAAAAAAAAAAAAAAABy/wCkvlJYTmu3zNa0t2hjNPSrouCr00k/fHdfmpHKcb0/o80ZY7W/WELUV2tzear6Mma/0bma7yrcVdKOLUu0opvlXppvRecN7+VHvA9RyZZwz2t+sGmttbl83TZ1SaAAAAAAAAAAAAAAAAAAAAAAAAAAAAAAAAAAAAAAAAAAAAAAAAAAAAAAAAAAAAAAAAAAAAAAAAAAAAAAAAAAAAAAAAAAAAQDbllqGZNnOJKNPeuMNj8vovTinT1c/fBz+BXcUwen01vOOv0/hqzV5qS5Ny1jNbL2YMOxyhJqdjc06/DqoyTa9q1XtOQwZZw5K5I8JQKzyzEu76dSFWnGrTlvQnFSi+9Pkd/E7xvC0ej0AAAAAAAAAAAAAAAAAAAAAAAAAAAAAAAAAAAAAAAAAAAAAAAAAAAAAAAAAAAAAAAAAAAAAAAAAAAAAAAAAAAAAAAABY4zjeFZew6ti2NX1K0tKC1nVqS0Xgl1bfRLizXly0w1m+Sdoh5NorG8tE5o9KSvG5nQyfgFGVGL0VxfuTc13qnFrT2yfkigz8dnfbBXp5z9kW2p/wCMMDD0mc2XNGtZ4zgOE3VtcUp0qkaSqUpaSTXNykuvcR443mmJresTEsf6i3aYaeKVHd1ZMrSuMn4FcTbcquG2s233ulFnf6ad8NJ90fos6ezDMm5kAAAAAAAAAAAAAAAAAAAAAAAAAAAAAAAAAAAAAAAAAAAAAAAAAAAAAAAAAAAAAAAAAAAAAAAAAAAAAAAAAAAAAAAHmc4U4SqVJKMYJyk29EkubEzt1HHW1zaVe7QcwVOxrTjg9nOULKhxSklw7WS+1L4LRd+vFcR1ttZk6ezHb7q/LknJPuW+z/ZNmraHOVbDaULWwpy3al7caqnvfZilxk/BcF1aMdHw/NrOtekecvMeK2Tskeb/AEdM35aw2riuHXlti9GhFzrQoxcKsYrm1F/SS8Hr4EnUcGzYK89Z5oj6s76e1Y3jq1QVDQ6v2D7SrPNuXqOWrqMKGKYNb06W4nwrUIpRjUj4rRKS79H10XX8K1tdRjjFPtVj6wnYMnNHL4w2oWzeAAAAAAAAAAAAAAAAAAAAAAAAAAAAAAAAAAAAAAAAAAAAAAAAAAAAAAAAAAAAAAAAAAAAAAAAKVa6tbZa3FzSpLvnNR/Exm1a95ebxDGVs45Rtm1cZqwek19u+pR/GRrnU4a97x9Yec9fNaT2j7PoPSWd8CT/AP1Cl/8Aka51umj/ANSPrDz0lPN5W0rZ4+Wd8D//AJ9L+4/rtN/+ZH1g9JTzXNHPWSbh6UM4YJUb6Rv6Tf8A1GUarBbtePrD3nr5spbX9jexU7O9oV4vk6VRSXwZuretvZnd7ExK4MnoAAAAAACHbYMSq4Ts0x+7ozcZytewTXNdpJU38JMhcRvOPS3mPL9ejXlnaky47wPDJ41jVhg8Jbsr66pWyl3b81HX4nFYqelyVp5zsr6xvOzunB8JsMBwu2wfC7eNC0tKapUoR6Jd/e3zb6ttnf48dcVIpSOkLOIisbQie2fM1PK+zzFbhVVG4vabsbddXOomnp5R3pewh8Sz+g01p8Z6R82vNblpLjQ4lXs1kzM93k7M1hmKzctbSqnUgnp2lN8JwfnFtG/TZ7abLXLXwZUtyW3h3FY3ttiNlQxCzqqpb3NKNalNcpQktU/czvK2i9YtXtKyid43hXMnoAAAAAAAAAAAAAAAAAAAAAAAAAAAAAAAAAAAAAAAAAAAAAAAAAAAAAAAAAAAAAAABjsVzDgGBw38axqxsVpr/wCIuIU9fLV8TXkzY8Xt2iPjLybRXvKF4tt+2YYVvRhjlS+qR+paW856+UmlF+8g5OL6TH/lv8Iapz0jxQ3FPSqwmm3HBcpXdfuldXEaXwipfiQcnHqR/bpPzn/u1zqY8IRLEvSdz5db0bDD8Jsovk1SnUmvbKWnwId+Oai3sxENc6m09kYxDbbtQxHVVs23FKL6W9OnR09sIp/EiX4nq797/TownNefFHr3OGbMS1WIZnxa5T5qreVJr3Nke2ozX9q8z85YTa095YqcqlRuc5Sk31fFmqd57vFN1IR+lOK82kYzaI7y83eHdWq53NFedSP9zCcuOO9o+sG8eb58stHyu6D/AP3I/wBzz02L/lH1h5zR5vcatKf0KsJeUkzOL1t2mHu8KsJTptTg5Ra5NcGZRv3h6zmGZ9zrg26sMzXitCMeUFdTcP5W9PgSKavPj9i8x82UXtHaU2wT0kNouGOMcRqWWK01zVxQUJ6eEqe78Uydi41qcftbW+P8NtdReO7ZmWfSayhibjQzFh91g9V6J1F8/R98UpL+X2lrg45hv0yxNfzj/fk3V1FZ79G1sJxrCMes43+C4lbX1vLlUoVFNa9z05PwfEt8eWmWvNjneG+Ji3WF6ZvQABBNuNtUutlmPU6SblClSqtJdI1YSfwTK/ilZtpLxH+9Yas3sS5QyZfUMMzfgmI3U1GjbYjb1aknyjGNSLb9xyGmvFM1LT2iY/VBpO1ol3Df4lYYXY1cSxG8o21rRhv1K1SajCMe/U729646za07RCymYiN5cjbY9p09omOxjY79PB8P3oWkJcHUb+lVkujei0XReLZxvEtd/WZPV9mO33QMuT0k9OyU+j7sxo5jWIZlx613sPlQq2NtGS/WTnFxqTWv2YtpPvfeiXwjQxm5suSOnWI+fdngx83rS1NmHBbrLmO3+BXq0rWNedCT+1o+El4NaNeZT5sU4clsdu8S0WjlnaXTPo35qljeSJ4JcVN64wSr2K159jPWUPc9+PlFHU8Fz+lwejnvX9PBN09t67eTbJcN4AAAAAAAAAAAAAAAAAAAAAAAAAAAAAAAAAAAAAAAAAAAAAAAAAAAAAAAAAAAAITtI2q4Ls1haRxOwvLutfRqOhCgoqPqbuu9JtafSXJMg63X00W3PEzMteTLGPu07jfpR5nut6GA4DYWEHwU60pV5rxX0Y+9MpMvHctv7dYj80a2ptPaEAxravtEx/ejiObb5Qlzp0J9hBruap6J+0r8vENTl9q8/Lp+jVOW9u8opVqym5Vq9RtvjKc3z82yHM+NmDH3GPYPatqtiNDVdIy338CFl4hpcPtZI+XX9GuctK95Y2vnbCqfChSuKz8IqK+JByce01fYiZ/JrnU0jsx9bPVw9Vb4dTj41Kjl+GhByfiG8/26RHxnf7Nc6qfCFlVzhjlT6FajSX3KS/PUiX43rL9piPhH33YTqMkrOrjuNVvp4pceUZbv4EW/EdXfvkn67fownLefFazurqr+tuq0/wB6o2RrZsl/atM/OWEzM95Umk+fHzNc9e7w3Y/ZXuPNoDdj9le492DdS5LQdhVp3NzRetG5rQf3ajRsrmyU9m0x85exMx2lfUMx45b6bmI1JJdKiU18SZj4prMfa8z8ev6s4zXjxZO0zxdwaV7ZUqq6yptwfueqLHD+IMlemWkT8OjbXUz/AJQzthmfCL9qEbjsaj+pWW6/Y+TLjT8V0up6RbafKen8JFc1L+KT4FmPHMs30cRwDFLixuFp61Keiku6S5SXg00W2LNkwW5sc7S3VtNZ3h0Ds59I+xxSdLCM9wpWNzLSML+mtKE3/qL6j8fo/uo6PRcark9TUdJ8/D5+SXj1ET0s3fCcKsI1aU4zhNKUZReqafJpl9E79YSXoC2xLD7XFsOusLvqfaW95RnQqx74STTXuZjekZKzS3aXkxvG0uKM95FxvIWOVsJxW3n2W83bXKi+zr0+kovv05rozhdXpcmkyTS8fCfNXXpNJ2lh7nF8VvbenZ3mJ3dehR4U6VWtKUIeSb0XsNNsl7Ry2mZhjMzPSU62X7G8dz7d0r69o1bHA4STq3M46SrL7NJPm39rkvF8HP0PDcmrtzW6V8/s2Y8U3nfwdaYXhdhguHW+E4XbQt7S1pqlSpwXCMV+L731Z2GPHXFWKUjaIT4iIjaHM/pOYHTw/OtpjNGKisUtE6njUpvdb/l3PccvxzFFM8Xj/KP0Q9TXa27z6MeKVLTPd1hu983fWE019+EoyT9297zzgeTl1E184eaadrbOpDrE4AAAAAAAAAAAAAAAAAAAAAAAAAAAAAAAAAAAAAAAAAAAAAAAAAAAAAAAAAAAAGhPStt96yy5dpfQq3NNv95U2v8ApZz3H49XHPx/ZF1XaHO5zaIsr6yvbpNW2LVrVPpCnF/Hn8SJqMGXL/byzX4RH/dhatrdp2Ry+yfi9duTxaN0/wDWck/zRR6jgmqyTv6Xm+O/8o1tPefHdi6+WMct+eHuou+lJS+C4lbk4RrMX+G/w6tU4ckeDHVqNa3lu3FGpSfdOLj+JAvjvjna8THxa5iY7vHPkYPAAAAAAAAAAAAGk+DAyeF5hxLCmoU6nbUFzpVHqvY+aLHR8Tz6PpE718p/bybaZbY+3ZNsJxqyxelv209JxXr0pfSj/deJ12j12LW13xz18Y8YTceSuSOjcux/bVfZLuKOA5hrVLnAakt2Lesp2bf1o9XDvj7Vx1T6Ph3E7aaYx5OtP0/hLxZpp0ns6pt7ihd29O6ta0K1GtBVKdSEk4zi1qmmuaaOtrMWjeOyd3VD0W2IYbh2LW0rLFLC3vLeT1dK4pRqQb8pJoxvSuSOW8bw8mInpLCWuzfIFnXV1bZNweFWL1UvkcHo/DVcCPXRaas7xSPoxjHSPBI0lFKMUkktEl0JTN9A519KycXiGXKafrRo3Mn5OVP+zOa4/PrY4+P7Imq7wi3o405T2m28lyhaXEn5bun5kTg0b6qPhLXp/bdZnYJ4AAAAAAAAAAAAAAAAAAAAAAAAAAAAAAAAAAAAAAAAAAAAAAAAAAAAAAAAAAAANP8ApPWLuMh2d7Fau0xKm2+6MoTT+O6UvHKb6eLeU/dH1Meru5RxW+eG2NW97F1VS0bipaapvTn7Ti9XqP6XDObbfZX3tyV5mIo54wyfCvb3NJ+Skvgyrpx/T29usx9JaY1NfGF/QzLgdxwhiNOLfSonD8Sbj4po8na8R8en6tkZsc+LIUq1Gut6hVhUXfCSl+BNpeuSN6TE/BsiYns9TjGpHcqRUovpJar4mVoi0bWjcnr3Y25y5gt1q6mH04yf1qesH8CDl4ZpM3tUiPh0/RrthpbvDE3WRbeWrsr6pTfSNWKkvetGVmb8P4564rzHx6tU6WP8ZYi6ynjVrq4UI3EV1oy1fuejKvNwbV4usRzR7vt3abYL18N2Jq06tCfZ16U6cl9WcXF/ErL0tjnlvG0+9qmJju8mLwAAAAAAAAAVLe5r2leFza1XTqwesZL8PI2Yst8F4yY52mHsTNZ3hsHAsapYza9pooV6eiq0+5968Gdxw/X112Pm7WjvH7/BYYskZI97ov0c9ptS2uo7P8buW6FduWG1Jv8AVz5ulr3Pi146rqjr+Da6az/TZJ6eH2T9Pk29SXRZ0qWAAAADln0m8UjeZ9t8OhLVYfYU4SXdOcpTf9LicnxzJzaiK+UIOpne+y89FvDZV83YpijjrC0sOy17pVKkdPhCRnwKm+a1/KP1e6aPWmXTR1KaAAAAAAAAAAAAAAAAAAAAAAAAAAAAAAAAAAAAAAAAAAAAAAAAAAAAAAAAAAAACD7a8LeK7MMdoxjrKhQjdR8OznGb+EWQOJ4/SaS8fP6dWrNG9JcU4tQ+VYZdW6WrnRml56ar8DgNXj9Np7084lWXjmrMNYp6pM+eqx9A+wcqct6nJwffF6P4HsTNZ3r0Oy/tswY1a6KliNWSX1anrr4k3FxPV4fZvPz6/q2RlvXtLKW2eL2Giu7KjVXfTbg/zRZYvxBlr/dpE/Dp922NTaO8Mva5ywevoq0qtvJ/5kNV70WeHjmlydLb1+P8Nsaik9+jL293a3kd+1uKVZfckmWeLNjzRvjtE/CW6LRbtL1Xt6FzB07ijCrH7M4qS+Jlkx0yxy5IiY972Yi3SWFvcm4Tcayt1UtZv7D1j7n+TKnPwPTZetN6z7u30lotp6T26MDe5Pxe11lQjC6gv8t6S/lf5FLqOCanD1p60e7v9Gi2nvXt1YWpCpRm6VanKnNc4yWjXsZU2rak8to2lpnp0l5MXgAAAAAAC7wvEauFX1O8patRelSP2oPmiVo9VbR5oy1+fvhnS80tzQ2fY3s6VS3xGwryhODhWo1YPRxa4xkvFcD6BjyRMRkxz74WUT4w7e2e5sp51yfh2YY7qq16W7cRX1K0fVmvBapteDR3uj1EarDXJ59/is8duesSkZJZgADzUqU6VOVWrNQhBOUpN6JJc2zyZ26yOGs75glmnN2LY+23G8upzp69KaekF7IqJwWqzenzWyecqy9ua0y6I9GbL8sMyTc43Wg41MXunKDa01pU/Vj/AFdodLwTDyYJyT/lP5R/spenrtXfzbfLlIAAAAAAAAAAAAAAAAAAAAAAAAAAAAAAAAAAAAAAAAAAAAAAAAAAAAAAAAAAAABa4pYUsUw27wyv+ru6FShP92cXF/BmF6RkrNJ8XkxvGzgu7tatjd1rK5hu1bepKlUj3Si9GvgfPrVmtprPgq5jbpLVOIWzs7+5tX+yqyivLXh8D51qsXoM18flMqu0ctphQNDEAAAAH2MpU5KdOUoSXKUXo17T2tprO9Z2k7MrZ5pxqz0Tue3gvq1lvfHmWWDjGrw9Obmj39fz7t1c96+LOWWd7OppG/tqlB/ah68f7oucHH8V+mas1+HWPu311NZ9qGftL6zv4b9nc06y+5LVrzXNFzh1GLURvitE/BvratvZku7Gzv4dneW1OtHpvrivJ80M2DFqI5ctYktWLdLQjmIZIpS1qYXcum/8urxXslzXtKLU8ArPrae23un7o19N/wAZRq+w6+w2e5e206WvKT4xfk+Rz+o0ubSzy5a7fp9Ua1LU9qFsR2IAAAAAE3yXeu4w2VpN6ytZ6L9yXFfHU7DgWo9Lp5xT3rP5T/sp2mtvXbydReixmGT/AEzlWrU1ilC/oR15coVP/wDM73gOb28M/H9p/ZZaa3eroI6NLAAGttvmb1lfIdxZ29XdvcZbsqKT4qDXzsv5eHnJFZxbU+g081jvbp92nPflrt5uUMIwu7xvFLTB7Cnv3F7WhQpR+9J6L2cTkMeO2W8Ur3lBiOadod0YBg1rl7BLHA7JfM2NvChB6aa7q01fi3xfmd9hxxhxxjr2iFnWOWNoZA2PQAAAAAAAAAAAAAAAAAAAAAAAAAAAAAAAAAAAAAAAAAAAAAAAAAAAAAAAAAAAAAON9t+A/oDaVi9KMN2lezV9S8VVWsv699ew4rimL0OqtHn1+v8AKuzV5by0VnO17DFo3KWkbmmn/FHg/wAj59x3D6PUxkjtaPzjp9lbqK7X382BKVHAAAAAAAAPsJzpTVSlOUJrlKL0a9qMq2tSeas7S9jp1hnLDOGKWmkLrdu6a+3wmv4l+Zb6bjeow9MnrR7+/wBW6uovXv1SbDsy4ViTUIVuxqv9nV9V6+D5M6HS8U02q6RO0+U/7slUzUuydSlTrQdKrTjOEucZLVP2E+1a3jltG8NkxE9JRvFMl21bWrhc/k8+fZyesH5Pmii1fAseT1tPPLPl4fwjX00T1oil5Y3eH1uwvaEqU+mvKXk+TOZz6fLprcmWu0otqzSdrQoGliAAAGfyVXdPFqlDXhWov3xaf9y84Bk5dTNPOP0SNNO19m//AEfsSlh+1DDKe9pC9p1rafinTcl/VGJ9B4Rfk1dY894/JZ4J2vDr07NYAHxtJNt6Jc2Bx1toz3/jnOVetaVd7DcO1tbPR8JJP1qn8UuPkonFcT1X9VnmY9mOkK/Nfnt7k29GfI0r3E7jPN/R+Ysd63st5fSrSXrzX7sXp5y8CdwTS8151Fu0dI+LZp6bzzS6QOnTAAAAAAAAAAAAAAAAAAAAAAAAAAAAAAAAAAAAAAAAAAAAAAAAAAAAAAAAAAAAAAAGhPSmy46lrg+bKNPV0ZSsa7S+rLWdP2Jqf8yOe49h3iuaPh9v3RdTXpFnLGcrL5RhSuYrWVrNT/hfB/k/YcFxzB6XTekjvWd/l4qzUV3pv5IMcaggAAAAAAAAAAaT5gZXDMy4nhmlNVe3or9nVeui8HzRZaTiuo0vq781fKf2nwbaZrUS7Csx4diulOE+yrv9lUejfk+TOo0fE8Gs6RO1vKf280ymauTp4r+6tLa9ou3uqMatN84yXLy7mTMuHHnryZY3hnasWjaUPxnKFxaKVxhjlXori6b4zivD7S+Jy+u4JfDvk0/Wvl4x9/1RMmnmvWvWEdKFGAAGVytLdx+18d9f0ss+DztrafP9JbcH9yG7dlVZ0No+W5xfF4jRh/NLT8z6HoJ21WP4wtMXtw7ZO6WQBqD0gtpUcs4I8p4TX0xTFabVaUXxt7d8G/CUuKXhvPuKbi+t9Bj9DT2rflH8o+fJyxyx3c6ZQytiWc8w2mXsLh87cz0lNrWNKC+lOXgl+S6nM6fBbU5Ix08USlZvO0O2MuYBh2VsDs8AwqluW1lSVOPfJ9ZPxb1b8Wd1hw1wY4x07Qsa1isbQyRtZAAAAAAAAAAAAAAAAAAAAAAAAAAAAAAAAAAAAAAAAAAAAAAAAAAAAAAAAAAAAAAAI5tDyxHOGTMVwDdTq3FByoN9K0fWh/UkvJsjazB/U4LY/Pt8fBhkrz1mHDtzbKpCraXNNpSUqdSLWjXRo4HJjjJWcd+09JVkxvG0tXXdrUsrqrZ1fp0ZuD8e5+4+d58NsGS2K3eJVdq8s7SpGp4AAAAAAAAAAAB+QEgwfN13ZbtDEN64oLgpftIL/uXmXmh41kwbUz+tXz8Y+6RjzzXpbrCZWl5bX1CNzaVo1KcuTj0fc+5nVYc2PUU9JineEytotG8MTjuWLfE1K5td2jdc9eUan73j4lZxDhNNXvkx9L/lPx+7VlwRfrHdB7i3r2ladtc0pU6sHpKMjkMuK+G848kbTCDMTWdpUzW8ZXK0d7H7Xw33/Syz4PG+tp8/0ltwf3Ibt2U0XW2j5bhFa6YhRn/LLX8j6HoI31WP4wtMXtw7ZO6WSM7Qs9Ybs/y5Wxu+cZ1nrTtLfXR16rXCPkubfReOiIus1VdJinJbv4R5ywyXjHG8uM8XxbF8145XxTEKk7q/xCtq92OrlJ8FGKXTkkl4I4jJkvqMk3t1mVdMzad5dV7FtmFPIGBu8xGnGWNYjCMrl8+xhzVJPw5vvfgkddwzQxpMfNb2p7+73J2HHyR17tjlm3AAAAAAAAAAAAAAAAAAAAAAAAAAAAAAAAAAAAAAAAAAAAAAAAAAAAAAAAAAAAAAAAADkbb7k15Wz1Xvrelu2ONa3lJpcFUb+dj/ADPe8po47i2m9BqJtHa3X7oGenLbfzaGzthu7OlitKPCWlKt5/Vf5e44Tj+l2mNTX4T+32Vupp/nCLHNooAAAAAAAAAAAAAC6w7ErzC6/b2dXdb+lF8YzXc0SdLq8ujvz4p+XhPxZ0vNJ3hPMGxy0xmk3S9StBfOUm+K8V3o7PQ8Qxa6u9elo7x/vgnY8sZI95jeCW2M0N2ekK8F83VS4rwfehr9Bj11Np6WjtP++BkxRkj3tfXdpc2NxO0uqbhVg+K6Nd670cTnwX0+SceSNphAtWaztLNZLoOeLyqv9lRk/a9F/cteA05tVNvKJ+zdp43vu35sCw93+1LCZbusbWNa4l4aUpJf1OJ9C4TTn1dfdvP5LPBG94dWZkzJg+U8Hr45jl3G3taC4t/SnLpCK6yfRHXZs1NPScmSdohOtaKxvLjraNn/ABTaJmCeLXidK2p607O1T1VGnr8ZPm31fgkjitbq76zJz27eEeSvyZJyTu3VsJ2OSwOFLOmabXTEKkd6xtai428X+0kvttcl9VePK94Vw30W2fNHXwjy/lJw4uX1rN3l6kgAAAAAAAAAAAAAAAAAAAAAAAAAAAAAAAAAAAAAAAAAAAAAAAAAAAAAAAAAAAAAAAAABBdsmRf8d5MuLW1pb2I2Ld1ZaLjKaXGH8UdV57r6EDiWl/q8ExHtR1j/AH3tWWnPVxje2dO7t6tlcwe7UThJNcV4+aZwmfDXPjtiv2lW2rFo2lrO9s62H3dWyuF69J6a/aXRrzPn+owX02WcV+8f7urbVmk8sqBpYgAAAAAAAAAAAAAKlvcV7WvC5tqsqdWm9YyRsxZb4bxkxztMPYmazvCfYBj1HGaDUtIXNNfOU+/7y8PwO14dxCuup16XjvH7wn4ssZI971j2CU8YttI6RuKa1pT/AO1+DPeI6Cuux9PajtP7fB7lxekj3sfkywqW1K6r1qcoTlUVLRrit3n8X8CDwHT2xVve8bTvt9O7VpqzETMt17Gc45fyBd4xmjGHKtcxtY2tnaU169aU5b0nryiluLVv7XDXkdlw3U49JNst++20R5/7sn4bxjmbSw2b865u2p49S+Uxq15Tm4WWH20XKNPXpGK4yk+snxfguC0ajVZtfk6/KIY3vbLLdeyHYNSy9OjmbOdKnXxOOk7ez4Sp2z6Sl0lNdOi8Xo1e8O4TGHbLn628I8v5ScWDl9a3duovEkAAAAAAAAAAAAAAAAAAAAAAAAAAAAAAAAAAAAAAAAAAAAAAAAAAAAAAAAAAAAAAAAAAAADlz0hdm8suY483YVb6YbitRuuorhQuXxfkp8ZLx3vA5PjGi9Dk9NSPVt+U/wAoWfHyzzR2aCzRgbxO2VzbQ1uqC4JfXj1j59xx3FuH/wBXj9Jj9uv5x5fZAz4ueN47wghxiAAAAAAAAAAAAA3pxYGVwzLWJ4mlUjTVCi/2lVaa+S5sstJwrUav1ojlr5z+0NtMNr9fBJLPJmE0Encupcz670t2PuX9y/wcD02OP+pvafpH0hJrp6R36spbYThlpNVbWxo0px5SjHj7yxxaPT4Z5sdIifNtjHWvWIXZJZgACbZV2q4pkmj2eWsv4JbVpLSpdVKE6tep4Ocp8F4JJeBOwa++ljbFWInz26/q2VyzT2YSSl6TW0Wm9Z2+DVF3Stpr8JokxxvVR32+jP8AqLs7hXpVYpCSjjeU7Wsnzla3EqTXskpa+9EjHx68f3KR8v8AZZRqZ8YbCy36QOzrMEo0LjEKuE15cNy+huQ1/wCYm4pebRZYOL6bN0meWff926uelvc2NQr0LqjC4tq1OtSqLehOnJSjJd6a4Ms4mLRvDd3VD0AAAAAAAAAAAAAAAAAAAAAAAAAAAAAAAAAAAAAAAAAAAAAAAAAAAAAAAAAAAAAAAAAFhjuB4bmTCLrA8Xt1WtLym6dSPXwafRp6NPo0jXlxVzUnHeOkvLVi0bS4z2iZCxTZ7mGrg98pVLeetSzud3SNelrwfhJcmuj8Gm+I1mkvo8nJbt4T5q7JScc7NXZny1Kq54nh1PWb9atSivpfej496OS4twrnmdRgjr4x5++P3Qs2Hf1qogcuhgAAAAAAAACrbW1xeV421rSlUqT5RX4vuRsxYb57xjxxvMvYibTtCa4JlW2w9KvfKFxc81qtYU/JdX4nW6Dg+PTRz5vWt+UfdNx4Ip1t1lni6SHuNGclrpovEq9TxfTaeeWJ5p9337NN89K9O5Kko/WK2fxBbfpjjb4/w0/1U+SnvLXTXiWui4nh1vSOlvKf282/Hmrk6eL6WLauLOxr305U6DgnFavelpwKziXFcHCqRkzxO09I2jfr+kNObNXBG9mQjlqu1693BeUWzm8n41wxP/Tw2n4zEfdEniNfCr68tVdPVvI6+MGY1/G2P/LBP/7o+zyOIx41/Nb1cAxCnq4KnV/dlo/iWOn/ABdw7N0vzU+MdPrG7bXXYrd+ixq0atCW5XpTpvuktDodPqcOqrz4LxaPdO6XW9bxvWd0gyjtCzbke4VXL+LVaVJy1nbTe/QqecHw9q0fiWGn1mbSzvjt8vBtpktTs6P2b7eMu50lSwrF4wwnF5+rGnOfzNeX+nN8m/svj0TkdNouLY9T6l/Vt+U/BLx54v0nu2iWzeAAAAAAAAAAAAAAAAAAAAAAAAAAAAAAAAAAAAAAAAAAAAAAAAAAAAAAAAAAAAAAAAAI/nfJOCZ8wOpguM0uD9ehXivnKFTpOL/FcmuBH1Wlx6vH6O//AGYXpF42lyBnrIOP7P8AF5YZjNBunJt211BPs68F1i+j74817m+L1WkyaO/Lf5T5oF6TjnaWvMdyrQxFyurJxoXL4tcoVH49z8TnOIcHpqd8mHpb8p+0+9Ey4Iv1r3Qy7s7qxrO3vKEqU10kufin1OTzYMmntyZY2lDtWaztKiamIAAAAAF1huGXWK3KtrWPjOb+jBd7JWk0mTWZPR4/nPhDOlJyTtDYOFYRZ4RQ7K1h60vp1JfSm/Hw8DttJosWipy446+M+Mp9McY42hfQhKb0ijLU6rFpKc+WfvPwe3vFI3lc06MYceb7zktbxPNq/V7V8o/fzQsma2Tp4PUuRWtKjV5AY26b5roY9p3gnzfbO77R9jUfrrk+9HWcI4pOp/6GafXjtPnH3/VMwZuf1bd1/b3FS1rwuKT0lB6+a6otNbpMeuwW0+Xtb8vKfk35McZazSyYUK0LijCvTfqzW8j4vqdPfSZrYMvtVnaf997nr0mlprPgqGliAeKlKnWg4VYRnF9JLVGzDmyae/pMNprbzidmVbTWd6zsw99l6L1qWMt1/wCXJ8H5M7Phf4vvWYx8QjeP+Ud/nHj8Y+iww6+Y6Zfqwk4TpTdOpBwnHmmtGjvMWbHnpGTFaJrPaY7LKtotG9ezd2yLb7c4VOhlrPFzKvYvSnb4hN6zod0aj5yh97mvFcuj4dxace2LUT08J8vj7kvFn29WzpGnUp1qcK1GpGdOcVKMovVST5NPqjpomJjeEx6PQAAAAAAAAAAAAAAAAAAAAAAAAAAAAAAAAAAAAAAAAAAAAAAAAAAAAAAAAAAAAAAAAxmYcuYLmrC6uDY9YU7u1q84yXGMukovnGS70as2GmopNMkbwxtWLRtLmnaL6PuYssTq4lliNXGMLWst2EdbmivvRX014x9qRy+s4Rlweti9av5wh5ME1616tQXdnb3UJW95bwqR10cZx5P8mUeXDTNXky13j3o1qxaNrI9e5HtKjc7C6nQb+pNb8ffzXxKPPwDFfrhty+6esff9Ue2mifZlh6+UMbot9nSpV1306i/B6FXk4Jq6ezEW+E/fZqnT3hZzwLGqb0lhVz7Ia/gRbcO1de+Ofo1zjvHg8xwXGJPRYXdf+2zGNBqp7Y5+h6O/kuKWV8eqvhh8oLvnOMfzN9OEay/+G3xmIZRhyT4Mhb5Hv56O6vKFJdVBOb/JE3F+H81v7l4j4dfs2RpreMpThuG2uFWsbW1holxlJ85y72dHpdLj0mOMeP8A7/FKpSMcbQvqdNzfclzZo1/EKaKvXrae0fvPuY5csY496R4FkrMuPwU8JwmrOi/21TSFP+aXP2anE6rWzlvOTNbeVffJzTvaUpo7EszzgpVsRw2lL7O9OWnuiQZ1uOO0S1+khaYhsdzhaQc7ZWd6lx0o1d2Xukl+JlXWY579CMkShOKYdf4XcStMSsq1rWjzhVg4vzXeiRW0Wjess992FulwZ5JLHuUoVFOPBp6o8pkthvGSk9Y6sYmazvDNU5qpTjUXKS1Po2nzV1OKuWva0bratuesWhIct3DlRqWzf6uW9Hyf+58//GWkjHqMeqr/AJRtPxj+P0VfEMe1ovHizJxqvAAAC0xDDaF/T0qerUX0ZpcV/dFrwnjGo4Tk3x9aT3r4T8PKff8AVvwai2CenbyRe6ta1nWdCvHSS5Po13o+r6HXYOI4Yz4J3ifrE+U+9d48lctearcOw/bLUy3Xo5RzRdOWE1pbltcTf/CSfRv/AC2/5Xx5a6dPwviU4ZjDln1fCfL+EzDm5fVt2dOJppNPVM6pNfQAAAAAAAAAAAAAAAAAAAAAAAAAAAAAAAAAAAAAAAAAAAAAAAAAAAAAAAAAAAAAAAAACHZx2TZHzs518WwmNK8n/wCstX2VbXvbXCX8SZC1PD9Pqut69fOO7XfFW/dp/MPot41bylVyxmC2vKfNUruLpTS7t6Oqk/5SlzcCyR1xW3+PRHtpp/xlAsT2MbTcKk1Xyjd1kuUrbdrp/wAjb+BX5OG6rH3pPy6/o1ThvHgwVbJubrd7tfKuMUn96xqr/tI06fLXvWfpLDltHg8U8p5pqPSnlrFZvujZ1H+R5GHJPas/Q5Z8lHE8AxvBI0pYzg95Ydum6SuaEqTmlzaUkm14i+HJi256zG/mTWY7rA1vHunTc34Lmyu4hxCmirt3tPaP3lqy5Yxx726tnmya3t7ajjmabZVK00p0LKa9WmujqLrLw5Lrx5cHrNRkyWm9p3mfFWZLzM7y2buxjFQjFKMeCSWiSKa2+7RKR5Pw/B8QncU8RhGpW4dnCUmtY9Wu9ne/gbhnCuJ3y49fEWydOWJmY6eMx23nf6LLhuHBmm0Zes+DGY9ZWthi1e0s6m/Sho1x13W1xjr4HOfiTQabhnE8mm0lt6Rt477bx1jf3f8AdE1eKmHNNKT0R7HMv4RmOylYYxZQuKT+i3wlB98Zc0ympktjnestEWmHOu0bId9kq+UZSlcWFw38muNP6Jd0l8S0w5oyx72+Lc0IHVfEysMlhs9+30+zJo7L8PZJvpJpP+Mz+fVP0s7028mdy/NxxDc1+nTkvdxIf4vxRfh3P/xtE/XeP3a9fXfFv5Skx8wUwB53nryGw+p66AfQLa/saV/QdKpwkuMJ6cYv+xZcK4pm4Tn9Lj61n2o84+/lLdhzWwW5oROvQq21aVCtHdnB6P8AufXdLqsWtw1z4Z3rP+7T74XtLxkrFq9nRno97VZYnRhkPMN1rdUIf+XVpvjVpxXGk39qKWq74rTpx6/g+v54/p8k9Y7fZPwZd/VlvQv0kAAAAAAAAAAAAAAAAAAAAAAAAAAAAAAAAAAAAAAAAAAAAAAAAAAAAAAAAAAAAAAAAAAAAABBNqG1jBtnNg6bcLvGK8NbazUuXdOpp9GPxfJdWq/XcQpo67d7T2j7tWTLGOPe5JzFmPGM1YtXxvHbydzdV3xk+UY9IxXKMV0SOOzZr57zkyTvKBa02neVjSpOo9XwiU/EeJV0deWvW8+Hl75+zRlzRj6R3bI2M5RpY/mGWJ3lFSs8IUam61qp1n9BPy0cvYjkZm+e05LzvKD1tO8t+VYNtsiZse7XaFtKnx5FffE1TV5cGjVNNnmzy46GE12ebPnmYbPGJzVlyzzVgV1gl6lu3EPUnpxp1F9Ga8n8NUZ47zjtFoe1naXIWJWlxh97cYfeQ3K9tVlRqx7pRej/AALeZi0bw3rnB3rSq+EkdV+G/wC1k+Mfom6TtLPYJr+k6P8AF+DNn4o//Csv/wCn/wDlD3Wf2Z+X6pUuR8nUYB4mtGmhu9I8z2Xj2eABjsYw75bR7SlH56mtY/eXcdF+HeMzwzP6LLP/AEr9/dPn9/d8EvSaj0NtrdpR6yvLrDrujf2NedC4tqkatKpB6ShOL1TXimj6vS80mLVnrC7idusOztl2fbbaDlWhiy3IXtH5i+or6lVLi0vsyXFeenRncaHVxrMMX8fH4rHFf0ld0vJjYAAAAAAAAAAAAAAAAAAAAAAAAAAAAAAAAAAAAAAAAAAAAAAAAAAAAAAAAAAAAAAAAAAADVe1vbbh2SKdXA8ClSvMdlHRr6VO016z75d0fa+GidTxDildLHo8fW/6fH7NGXNFOkd3LOJYlf4xf18TxS7qXN1czc6tWpLWUpf/AD3HJXvbJab3neZQZmZneVKlRc/Wlwj+JScS4rXTb4sXW/6fyj5c3J0r3XKSS0RyNrTeZtad5lCmd+suhthuHwtcixu1Fb99dVasn4Re4v8Ap+JMw1/6bOI6J9OnqYXx7vJhRlS1It8LCaqcqXgaLYGE1Up0iNfFswmqjKLXQi2psxmHniaphi5b24YfTw7aLiDpR3Y3dOldaeMo6S+MWyz087443bq9YRnBYtW0pP603+B234epy6a1vO36RCx0sepMpDgMd7Eoy0+hCT/L8yP+LcnJwy1f+Vqx+/7MNdO2Hb3pOfLVKAeKuu77RA+w5+w9kejwAB4I5jth2Fb5XSjpTqv1kukv9z6V+FOLf1WH+jyz69O3vr/H6bLfRZ+evo7d4/RM9gmb55Yz7bWdau4WWMaWdeLfq77/AFUvNS4a90mfQuE6j0Gois9rdPstcF+W/wAXXZ2SeAAAAAAAAAAAAAAAAAAAAAAAAAAAAAAAAAAAAAAAAAAAAAAAAAAAAAAAAAAAAAAAAAPjaS1b4AaI2u7f4WTr5ayHcxqXHGncYlB6xp9HGk+svv8AJdNXxXP8R4vy74tPPXxn7fdFy59vVo52qVKlapKrVqSnOcnKUpPVyb5tvqzmpmZneURUpUNfWmuHRHO8S4vy74dPPXxn7fdFy59vVornMzO6GAdH7E7qFxs+s6cWm7evXpSXc99y/CSJ+Cd8cNteydczbMbvXxw8DCaPOV4dM12xvJhTnS16Ee+FhNd1vOj4EHJga5qpOiRpwSw5XLnpA3MK20e5owf/AA1pb0pee65fhJEjHXkrsz22RnD6fZWdKLXFreft4n0PhmH0Gkx1nvtv9eq0w15ccQz+W935TW159mtPLXic3+Neb+lxbdub9un7onEN+SPikJ86VIB8mtYtCB8gJHoAAAp16FK4pSo1oqUJ8GjdptTl0eWufDO1q/7+bKl5x2i1e6IJ1rK61pzcKtCprGS5qUXwZ9t02eufFTPj7WiJj59XRUtzRFo8XcmTMe/xRlTCsfkoqd9a06tRR5KpppNLykmj6Hpsvp8NcnnC1pbmrEs0b2QAAAAAAAAAAAAAAAAAAAAAAAAAAAAAAAAAAAAAAAAAAAAAAAAAAAAAAAAAAAAAAC2xHErDCLGtiWKXdK1tbeO/Vq1ZbsYrxZje9cdZtedoh5MxEby5j2s7d77NvbYBlaVWywZ6wq1vo1bteP2YP7PN9e45XiHFbajfHh6V/Of4Qsueb9K9moefBFJa0UibWnaIR5nbrK4pUVH1p8+i7jleI8WnPviwdK+M+M/aEPLn5vVr2VSjRgABtnYJmWna3t7le5qKKu9Lm21fOcVpOK8XHR/ws34b8vRlWfBu5STJVb7s93tM2RL190R7sPLiYWpu8mFOVPXoabYt2MwtMRurPCrG4xPEKsaVta0pVq05cowitWzTOGI6y85XE2YMXr5tzTfYzWi4yxG6nW3X9SDfCPsikvYa9LhnVZ64o8Z/Lx/JjSvPaIZJLRaLofROkdIWzI4DVVPEFB/tIOPt5/kcz+LcE5eGzeP8Zif2/dD11ebFv5JOfLlKAfHwTARWiEj6AAAGBFcbpqniVXTlNRn71/sfV/wvn9NwzHE/471+k9Pyld6K3Nhj3Om/RpxuniGQZ4S6utbCrupBw7qdT14v2tz9x9O4Jl59Pyf8Z/XqudPbem3k20XDeAAAAAAAAAAAAAAAAAAAAAAAAAAAAAAAAAAAAAAAAAAAAAAAAAAAAAAAAAAAAABHc658y7kLC3iWPXajKSaoW8NHVryXSMfxb4LqyNqtXi0lOfJPy8ZYXvFI3lyjtG2p5h2i329fVHa4dSlrb2NOT3Ifek/ry8X46JHIazX5NZb1ulfCEHJlnJPVDYxcnuxWrKzPqMemp6TLO0f72abWikbyuadKNNa833nHa/iWTWzy9q+X3QMmWcnweyuagAAArWd5dYfd0b+yrSo3FvNVKVSPOMlyYHR+QNoWH5ysYxlOFDE6MV8otteb+3Dvi/hyZsrkmHu6YRnqSaZN2USqqWpIrZm+mT3u+TcIQlUqSjGEE5SlJ6JJdW+iGzzZzTt12v0Myb2T8r3O/hlOad5cxfC6nF8IR74J8der06LjW6nNFvUr2a7236Q1RgtDWU7qS5erH8y6/D2m3m2pt8I/dv0tO92WSb4JN8NfYdPa0V6zP+ymTOypbVnb3NKun9CafsI2u08avTZMH/KJj7fmwyU56TXzTRNPly6HxLaY6S50ANagAAAAAAjuZIaXVGf2qbXuf+59F/BeTfS5cflb9Y/hbcPnekx721vRZxWVDM+L4M5epd2Ua+n3qc0l8Kj9x9Q4Dk2y2p5xv9P+6500+tMOlzqEwAAAAAAAAAAAAAAAAAPNOpTqxU6U4zi+Ti9UeRMT1gej0AAAAAAAAAAAAAAAAAAAAAAAAAAAAAAAAAAAAAAAAA1btR254LkmNXCMF7LEsbWsXBPWjbP/AFGub+4uPe11qddxXHpd6Y+tvyj4/Zoy5op0ju5fzBmHGc0YpVxjHr+pd3dbnOb4RXSMUuEYrolwOUzZr57zfJO8oVrTad5WNOnKo+HBd5V67iGLRRtPW3hH38oacmWMfxXMIRgtIo4/U6rLq78+WftHwQb3m87y9whOpONOnCU5ze7GMVq5PuS6kZgnWAbH8x4pCNxilSnhdGXHdqLfqtfurl7Xr4EXJq6U6V6sJyRCX2uxPLNKCV3fYhcS6tTjBe5L8yNOtv4Qw9JL1cbFcqVItW91iNCXR9rGS9ziI1t/GIPSSi2ObF8csYSr4Le0sRhHj2Ul2VX2avdfvRIprKW6W6M4yRKAXNtc2dedreW9ShWpvSdOpFxlF+KZLiYmN4Z9y2ubmyuKd3Z3FShXpPehUpycZRfg0ejZOXtuuNWFONvj+H08RhFadtTl2VXTxX0X8D2tuV7Ephb7e8lSpqVxb4pRl1i6EZfFSJNc8R3ZRaFjivpGZctab/ROCYhd1NOHbONGHtesn8DOdXWO0PeeIagz7tezfnWnOyu7qNlh8udna6xjJfflzn5Ph4EXLqL5Ok9mFrzPRrySlUmqcFq5PRI0UpbJaKUjrPSGERMztCQ21CNvQhRj9VcX3vqfRNLp66XDXDXw/XxWtK8lYrDOYFYKtSr16seE4ulDXxXFnIfiri06bLi0+KetZi8/KekfrP0Qdbn5LVrHh1YiUXCUqclo4txZ2lL1y1jJTtPWPn1WETExvCU4NdfKbGDb1lT+bl7OXwPk34j0P9DxC+0erf1o+ff6So9Xj9HlnynqvijRgAAAAAAGDzNH/hp+M1+B3X4Jt1z0/wDbP6rPh0+1HwTL0c7h0dp9rTT/AF9rcU3/ACb3/afU+DTtq4jziVzp/bdanYJ4AAAAAAAAAAAAAAAA096R2e7rLuX7bLeFXMqN3jDk604PSULeOmqT6bzaXkpIpeM6qcOOMVJ62/T+UfUX5Y5Y8WQ9G+NdbM6LrSk4SvK7pJ9I6rgv4t73mzgu/wDSxv5y90/sNols3gAAAAAAAAAAAAAAAAAAAAAAAAAAAAAAAAAAAAABa4nieHYNY1cSxW9o2lrQjvVKtWajGK83+HUwveuOs2vO0Q8mYiN5c47T/SGv8aVbBMjzq2VhLWFS+aca9Zfc604+P0n93ijmtdxi2XfHp+kefjP2/VDyZ5t0q0o223KTbb4tsokdWp0G/WnwXcUGv4zXHvj03WfPwj4eaLl1G3SiukktEjl7WteZtad5lEmd+sqtra3N9c0rKzoyq1681CnCK4yk+hjMxWN5edm+ci7PbDKlvG7uYwuMUnH5ys1qqev1Yd3nzfwKnPqJyztHZotffsl/AjMB66cENpEzqWGWauWHcUVRjKFHVVNV2naacn1114aH1zLw38O5vw5OfFFYmKbxb/Pn27T47zPTbt5dNl5bDpbaTmrtvt38d0M8z5Hso0ezhknCs3WbhcwjRvKcfmLqK9aD7n9qPh7jfhz2wz7mVbTVz/i+E32BYjWwrEqPZ3FCWkl0kukk+qaLel4vXmqkRO6ykzIUakuAFhc1dEzGSWKuKmrfExliuMItt+bu5rhHhDz6s6LgGj5rTqrx0jpHx8Z+SXpce888szSpTr1YUaS1nN7qOj1Oox6TDbPln1axvP8AvvS72ilZtbtCYW1CFtQhQp/RgtF4+J8W1eqvrc99Rk72nf8Aj5R0c9kvOS02nxR3HbZ0L51EvUrLeXn1PpX4V10avQximfWx9Pl4fb5LfRZOfHy+MPmC3qtLvcm9Kdb1ZeD6My/E3DJ4hpOfHHr06x748Y/d7rMPpce8d4Sg+VKQPQAAAAADDZlXzNB902vgdp+Cp/8AmM0f/TH6rHh3tW+CRbBKvZ7VsE4/S+UR99CofVeEztrKfP8ASV1g/uQ7CO0WAAAAAAAAAAAAAAAAA5P9JK/nd7SalrKT3bKyoUYru1Tm/wDrOQ41fm1W3lEfdA1E73b42J2Ssdl2A0ktHUoTrPx36kpfmdBwyvJpKR/vdKwxtSE4J7aAAAAAAAAAAAAAAAAAAAAAAAAAAAAAAAAAAAAAIRtD2t5X2e0ZUbut8sxOUdadhRkt/jyc3yhHxfHuTIGs4hi0cbW628v97NWTLXH37uW89bR8z7Qb75Rjd3u29OTdCzpaxo0fJdX956v2cDlNVrcustvknp5eCFfJbJPVGIxlJ6RWrK7PqMempz5Z2j/ezVa0UjeVxToqHF8Wclr+K5NXvSnq08vGfj9kLJmm/SOkKhVNABtrYtlaHY1s2XVNOUpO3tNVyS+nNeb4exkLV2nbkhrvPg2po/EruVp2fVFmcVZbPqg+4zjHJsOn10PJx+Js+OLMJq82eeRhMPGvtsGWIYlgn6et6a+VYatZtLjOg3xT8nx95L0eXltyT2lsx22nZo+UuveWjcta1TRGMjF3VXXU8YysYwlcVo0Yc5vTy8TPT4banLXFXvMva1m9orCQ0qcKNONKmtIxWiPoeLFTBjjHTtC1rWKxtDP5esdIu+qR4y1jT8urOD/F/FOe0aDHPSOtvj4R8u8/JW6/NvPoo+bNnEK1Z4pZfLrWVOP6yPrQfj3e0t+B8T/8L1cZbexPS3w8/l3SNNm9Dk3nt4om003GS0a4NPofX62i0Ras7wvYnfrCRYJifyiCtK8vnYLSLf11/c+bfibgk6S86zTx/wBO3eP+M/afylU6zTejn0lezLHJIAAAAAAGHzL/AMNRf+p+R2P4L/8ANZf/AG/vCfw/25+DN7DXptVwB/6lb/7NQ+rcL/8AN0+f6Su8Ptw7IO2WIAAAAAAAAAAAAAAAA5E9IWLjtUxNv61G2a/9mK/I43jH/m7fL9EDP/cl0bslqRq7Ncuyg9UrGnH2rg/ijpuHzvpafBLxexCXExsAAAAAAAAAAAAAAAAAAAAAAAAAAAAAAAAAAAWuJYph2DWVXEsVvaNpa0VvVKtaajGK83+BhfJXHXmvO0PJmIjeXPu0j0kLm87XCMgKVvResZ4jUjpUmv8ATi/or7z4+EeZzut41NvU03SPP7ImTUb9KNF169e6rTubmtOrVqyc51KknKUpPm23xbKCZm07z3Ru77ToynxfBfiVGu4ti0u9Ketb8o+P2aMmeKdI6yuIwjBaRWhyefUZNTfnyzvP+9kK1pvO9n00sQD5J6Rb7kB1LlbCYYRlnC8OhHTsbWmpeMmtZfFs05cXNO7G1WS7Ej+gYcr1Gl4GcYHsVe1S8DbGBlyjpeAthOVSnTI18WzCaqMo6dCJauzCY2W91bUry2q2daKlTr05UprvUlo/xNcerO7yOkuUr6lKzua1pN+tQqSpvzi2vyL2J3jdJYu5q6amLyWLr1NWzGZeL3BrfhK7muL9WHl1Z1HANHy1nVW8ekfvP7Jmlx9OeWYtLad3cQt4c5vi+5dWXHENbTh+mvqb/wCMfWfCPqkZckYqTeUxpwjThGnBaRikkvA+LZMl815yXneZnefjLnpmbTvL0YvADBY7hr1d9Qj/AM1L/qO8/CvGo2jh+on/ANk//wBft9FnotR/6Vvl9mFjKUZKcJNST1TXRnc3pXJWaXjeJ6TCymImNpSTCsXheJUK7Ua6Xsn5eJ8w49+Hr8Nmc+njfFP1r8fd5T9VNqdLOH1q+z+jJnMoYAAAAMPmX/hqP/M/I7H8F/8Amsv/ALf3hP4f/cn4M1sOWu1XAP8Am1f/ALMz6twv/wA3T5/pK7w+3Dsk7ZYgAAAAAAAAAAAAAAADlz0ncMna56tMSUfm76whx75wlJP4OPvOT45Tl1EW84QtTG1t21/R4xeOJ7MrO23054dXrWs+9etvr4TRccHyc+liPLeP3/dvwTvRswtG4AAAAAAAAAAAAAAAAAAAAAAAAAAAAAAAAADWm0PbrlXJXa4fYTji+LR1j2FCfzdKX+pPkv3Vq+/TmVes4rh0vq19a3l95acmatOkdZc1Zz2gZoz5e/K8wYhKpCDbo21P1aNH92Pf4vV97OX1Ory6u3Nkn5eCHfJa89UdjGUnpFasgZs+PT058s7Q1WtFY3lXp0FHjLi/gcvreMZM+9MPq1/Ofsh5M826V6QqlKjgAAAbSWr5IDr623KlrRnD6MqcWvLREjkiWUwq9n4D0Rs+qn4GcYoe7PSgjOMb3Z8cDy2N5MKNSmRMmJhMLapAr8uNqtCg4tMhWrsw26uTs1V4SzDis6b9V3tfTy7SRbU9mPg3x2Ru4ra9T2Xi2pUp3VeNGHV8X3I36TTW1eauGvj+UeMsqUnJaKwkEIRpwjCC0jFaJH0KlK4qRSkdI6QtYiKxtCQ5dtYRpTu205Te4vupc/efPfxjrr3zV0UdK1jmn3zPb6R+aq1+SZtGPwhmTjFeAADWq0YiZid4EcxfCHbuV1axbpc5RX1P9j6R+HvxFGriNLqp/wCp4T/y/wD9fqt9Lq+f1L9/1YpNppptNcU0ddMRaNpTu7NYdjzjpRv3quSqr8/7nDcY/CfNM5+H9/Gv/wBv2+iu1Gi39bF9GchUhUgp05xlF8mnqmcLkx3w3nHkiYtHhPSVZMTWdpejB4AAMNmV/MUF/qP8Ds/wVH/zOaf/AKY/VYcO9u3wZ/YPDf2rYF4Sry91CofVeFRvrKfP9JXeD+5DsU7VYAAAAAAAAAAAAAAAADUfpJZUqY3kyljtrT3q+CVXUnouPYT0U/c1B+SZTca085cEZI71/RH1Feau/k1x6N+dqWA5nrZZv6yha40oqk5PhG5jrur+JNrz3Ss4LqoxZZxW7W/X+WnT35bcs+LqM6xOAAAAAAAAAAAAAAAAAAAAAAAAAAAAAAACM5z2i5TyHa9tj+JRjWlHepWlL169Xyj0Xi9F4kXU6zDpI3yT18vFhfJWndzjtA295qzgquH4VKWDYXLWLpUZ/PVY/fqLR6P7MdF0epzOs4tm1Pq09Wv5/VDyZ7X6R0hrAqWlVhQlLjLgviUus4zjw70wetbz8I+6Pk1EV6V6yrxjGC0itDmM+oyai3PlneUO1pvO8vppYgAAAANaprvA6f2dY1DHMm4XeKWtSFBW9XwnT9V6+5P2m+l2W6UR0JNWT2kbYhk+pdxls92HE8mHinOJovTdjMLepT1IWTE1zViMw4jQwHBb7GblpQs6E6r16tLgva9F7SDbDvLXy9XHF5dTqznVqSbnOTlJ+LerJLOWNq1NdTGZeMthVo6FHtai9epx8l0Oz4Lof6bD6W8etb8o8PusNPj5K8095XxcpCTYBDdw6L+1OUvyPln4syc/E7R5VrH5b/upddO+aWSObQwAAANJrRoRO07wMHiWA6t17FJPm6XR+X9juOC/iqabYOIT08L/AP3ff6rLT63b1cv1+7CSjKMnCUXGS4NNaNHe0vXJWL0neJ7THZZxMTG8Kttd3NnPft6rj3ro/NETXcO03Eacmppv7/GPhLXkxUyxteGbtMw29RKN1B0pfaXGP90cJr/whqcMzbR256+U9LfafyVuXQXr1x9YZSlWpVodpSqRnHvi9Tlc+ny6a/o81ZrPlMbIVq2pO1o2ezUxYTMr+bt196T+CO3/AATH/Vz291f1lY8O9q3ySr0e6e/tVwqWn6ulcy//AKZr8z6pwiN9XX5/ou8H9yHXh2SeAAAAAAAAAAAAAAAAKV1bW97bVbO7pRq0K8JUqkJLVSjJaNPwaZ5asWiaz2kmN+jjPadkK/2cZpnZRdT5HVk6+H3KbTlT14LX7cXon7H1RxGu0ltFm5fDwn/fJXZKTjts6C2J7VqWesJWD4vXisdsKa7TXh8pprgqq8eSku/j14dHwzXxqqcl/bj8/f8AdKw5eeNp7tnlq3gAAAAAAAAAAAAAAAAAAAAAAAAAAAMRmTNuXMoWTxDMWLULKlx3VOWs6j7oRXrSfkjTn1GLT15ss7MbWikby0Fnz0lsWxJVMPyRayw63esXeVkpV5L7seMYfF+Rzur43e/q4I2jz8f4Rb6iZ6VaWu7y7v7mpeX1zVuLitLeqVas3Oc33tvi2UdrTeea07yjTO/WVOFOVTktF3sr9XxHBo+l53t5R3/hqvlrj791xClCHHm+9nLaziebWdJnavlH7+aHky2ydPB7K9qe6NGtc1oW9tRnVq1HuwhCLlKT7klzPJnaN5GxMvbGMVvoRuMwXqsIS49hTSnV08X9GPxIeTW1r0pG7XOSI7JpZ7I8k2sUqthWupLnKtcS4+yOiI1tZlntOzCckrirspyTdQkqeASjurjKjVq6x+Jljzam+80iZ277Rvt8ej2LXnsi+NbEbWcJVcvYtUpz5qldLei/4ktV7mZ013/OHsZPNrTGsBxfLt38ixiynb1Hxi3xjNd8ZLg0TqXrkjestkTE9mPM3rY2xrOdPAsVngGIVlCzxGadKUnwp1+S8lJaLzSG+3Ub+hIk47s4lWi+BMrLN7RshlA1qJgeWjCYYqcoamm1N2Mw0N6QufKMlDI2GV1JwlGtiEovgmuMKXn9Z+whZtqzswt06NB1qur5keZYKmG2nyqv2k183T4vxfRFtwfQf1mbnvHqV7++fCPu34MXPbee0M7wSO3lYvrjOOm/TnBtKSUotPRrVPR96aftMKWjJWLR2l5E7xukmXqqnYbmvGnOUfY+J8x/F2D0XEfSeF6xP06T+in11dsu/nDJnMIQAAAAAFtd4fa3sdK9JN9JLhJe0sNBxXV8Ntvp77R5T1ifl9m7Fnvhn1ZYO9wK6t252+tan4L1l7Dv+G/irSauIpqP+nf3+zPwnw+azw62l+l+k/kxjTTcWmmuaZ08TFo5o6wmRO/Z7o161vPfoVZQl3xZp1Glw6uno89YtHv/AN6Mb0rkja0bsvaZinFqF7T3l9uC4+1HHcR/B1Lb30Ntp/427fKfugZdBE9cc/J5zBXpV42s6NRTi1Npr2Gf4R0uXS31FM1ZraOWNp+b3Q0tSbRaNp6J16N1HtdplKen6qyrz+Cj/wBx9M4LG+q+UrfT+26xOvTwAAAAAAAAAAAAAAAAAjmfcj4Vn/L1bBMSioz+nbXCWsqFVLhJeHRrqtfMjavS01eOcdvlPlLC9IvG0uQL2yzRsyzb2VSVSxxXDKu/TqQ5SXSUX9aEl702n1Rxdq5dDm2npaFfMWx297qrZbtQwzaNhG+ty3xW1ivllpry6b8O+DfufB9G+u0GupraeVo7x/vgnYskZI96cE9tAAAAAAAAAAAAAAAAAAAAAAAADEZjzblvKVn8uzFi9vZU2nuqpL15+EYL1pPyTNObUYtPXmy22Y2vWnWWi87+k5eXHaWORcP+Sw4x+XXcVKo/GFPjFectfJFBquOWt6unjb3z9ka+pntVpLFcXxTHL2eI4xiFxe3NT6VWtUc5Pw48l4ciiyZL5bc153lGmZtO8raMJTekVqQ9Tq8OkjfLbb3eP0a73rT2laFCMeM+L+BzWr41lzb1w+rH5/x8kS+otbpXoqlLM7o4BVtra4vbmlZ2lGVWvXmqdOEVxlJ8keTMRG8jfmRMhWOUrSNetGFfFKsfnq+mu5r9SHcvHqVOfPOWdo7NFrzPRLOJH2YbHtPeU2TLKGNYTZYZK2uq9OhVjOUpOXDfT5PXr3aH1n8Ece4XoOHTptTeMd4mZnf/ACie07+O3bbv0XnDtVhxYuS87T+qMYrWtrjErmvZQ3aE6jcElpw79PF8T5xxrNptVxDNm0kbY7WmY8Pnt4bz12VOotS+W1sfbdhcbwPDMw4fPDsUto1qM+XSUH9qL6NFdTJbHO9WqJmHPub8q3uUcWlh9y3UozW/b19NFUh+TXJr+5cYcsZq80JFZ5oYN8Ta9be2c7YKdClSwPN9dpQ0hRvnxWnSNT/8vf3mVZ2l7Dc1tXpXFGFxb1YVaU1vQnCSlGS701wZOx23ZwuEb4Zw9Gb15nKMYucpJRitW29El3s8mDu07tP264fg9CtgmTLiF5iEk4VLyOkqNv37r5Tl8F48iHm1Fa9Kd2u1tuzm28u6txVqV69WdSpUk5znN6ylJvVtvqyumWla04VLmrGlTWrk/wD4zZgwX1OSMWPvL2tZvPLCQ29CFtRjRhyjzfe+8+gaXTU0mKMVO0fn71pSkUryw3FsI2SW+cbmeZsx2znhFnU3KNCS9W6qri0++Eeq6t6dGi/4Zw2us3vmj1PLz/jz8+yVhw+k627PvpLZXlhOcbfMFClu22L28U2lolVpJQa8PU3PiZcbwejzRkjtaP0/jY1Fdrb+bWWBXit7t0aktIVklr3S6Hz38V8OtrNJGfHG9sfX41nv9O6r1uL0lOaO8JMfL1MHoAAADUDxUq06S1q1IwXfKSRsxYcmeeXFWbT7omf0ZVrNvZjda1MYw2nzuov91N/gWuL8O8UzdsMx8do/WW6ulzW/xWd1iuDXMd2tRnV8ez0a9pdaHgPHNFbmwZIp7ubePnG0wkY9LqcfWs7fNh7hWWu9aSrJfZqRX4pna6KddttrIp8azP6TH7rHH6Xtk2+SgWDaHm3iNy+i7YVK2dcRxBR+btsNlBvulOpDRe6MvcXnAqTOe1vKP3SNNHrTLp46pNAAAAAAAAAAAAAAAAACG7TdpeFbN8Hjd3MPlN/c6xs7RS0dRrnKT6RWq1fikQtdraaKm89ZntDXkyRjhylnDPGZ9ouKUrvGqka9WGsLehQopKnFvXdil6z9rbOQ1Oqy6y+9+vkg3vbJPVh3HGMBvNJK8w67ik+O9RqJP3PRmn18VvGJ+jHrWUnwHbDtGy9VjO1zPd3NOL1dG8l8ohJd3r6tLyaJWHiOpwz0vM/HqzrlvXxbuyV6SWWMaVOzzVQeDXctIurxnbSf73OHtWi+0X2m41iy+rm9WfySaais9LdG3be5t7yhC6tLinXo1VvQqU5qUZLvTXBoua2i0bxPRI7qp6AAAAAAAAAAAAAAAAAAAi2bdpuSslRlHHMboxuIrVWtH5yu/wCBfR85aLxImo12DTf3LdfLxYWyVp3lo/OPpNZgxPtLTKFhDCqD1Sua2lS4a70vow/q8yh1PG8l/Vwxyx5+P2Rb6iZ6VaexHE8Rxi7nf4rfV7y5qPWdWvUc5v2spb5LZLc153lHmZnrK3jCU3pFakXUarDpY3y22/X6MLXrT2pV4W6XGb18DndVxzJk9XTxyx5+P8It9RM9K9FVJLgloUVrWvPNad5R5mZ6yHjwAAbV2J5YjXnc5puaevZSdta6rlLT15e5pe1kXVTM15YYXbb7N9zIHo5atn1U/AyjHL3Z67NmcYjYdM8nEbPDhoa7U2ebPD4GqYYyjG0TLUMyZauKVOmndWqdxbPrvJcY/wAS1Xnp3G3TZfR390s6TtLnlPValy3gGXwLNuZMsy3sDxivawb1dJPepvzg9V8DKt7U7S9idkzs/SAzfbQULvDsMumvrOE6bfulp8DfGqvHeGXPL5e+kRmycHG1wjCreX2nGc2vfJITq7+EQc8oBmnaNm/NEZUcZx2vUoP/ANPT0p0vbGOmvt1NF818ntSxm0z3Q2vW14I0zLBZznq9DEZrDLH5LT7WovnZrj91dx23COH/ANHj58kevb8o8vusMGL0cbz3lMdn+SMRz9mW3wKxUoU2+0uq+mqoUU/Wl59EuraOh0eltq8sY6/P3Ql46Te20O0sGwfD8v4Va4LhVuqNpZ01SpQXRLq+9t8W+rbZ3OLHXDSKUjpCxiIrG0MDtNyNb7QMqXOCTcad1D5+zqyX6utFPTXwabi/B+BG12ljV4Zx+Ph8WGSnpK7OL8Rw6+wm+r4ZiVtUt7q2qOnVpTWkoSXNHEXpbHaa2jaYV0xMTtLKYZjsd2NC+lo1wjV6Pz/ufPeN/ha/NOo0EbxPenl/7fd7voq9Top358X0+zNxnGcVKMk0+TT1TOItW2O00vG0x4T3V0xMTtL6ePHyU4wi5SklFc23oke0pbJaKUjeZ8I6y9iJmdoYu6zBa0tY28XWl3rhH39TqtD+EdXqNramfRx5d7fTtHzn5JuLQ5L9b9P1Yq4xrEK7aVbso91NafHmdbpPwzw7SdZpzz526/l2/JOpo8VPDf4rKTlN705OTfVvVl9SlccctI2j3dEmIiI2hWtLC+v6io2FlXuZvgo0abm/ckZ1pa/SsbvYiZ7M7bbNtoF2lKhkvGmnycrKpFfFIkV0Wpt2pP0lnGO8+C/jsb2nTipLJ19o+/cT9zZn/wCHar/hL30V/Jb3GynaRbNqpkrFnp/l27qf9Op5Og1Uf+nP0eeiv5MdXyTnO1purc5SxmlBc5TsKsUva4mqdNnr1mk/SXnJbyb59FnCpW+AY3i06bjK4vIW3Fcfm4av41DoeA49sd7+c7fT/ulaaOky3gXySAAAAAAAAAAAAAAAAAHGW1jMl3nXaHiFWk5VadKv8gsqa4+pCW6tP3pay/iOI4hmtqtTaY89oV2W03vLpjZlszwbZ9gtGlTtqVXFasFK8vHFOcptcYxfSC5JLnpq+J1Oh0NNHSIiPW8ZTceOMce9jttGzG3z7gE72xoqONYdTlO1mlxrRXF0X369O5+DZq4noY1ePmr7UdvsxzY+eN47uYckrBJ5ktcOzNauph19NWldp7tShvvRVIy6OMtH1TSaaepyul9HOWK5Y9Wenw9/yQqbb7WbCzx6N+ZcBp1L/K9z+mbSEd6VHd3LmPfpHlP2PXwLLVcFy4vWxTzR+bdfT2r1r1QjJW0XNmz3EFPCryp8njP5+xrNulU704/Vl4rR/gQNNrM2jt6k9PGPBqpktjno6zyFn/A9oODRxTCKm5VhpG5tZyTqUJ9z70+kuT89Uuw0mrx6ynPT5x5J9MkZI3hJiUzAAAAAAAAAAAAAAY3GMx5fy/S7bHMasrCOmq+UV4wb8k3q/YasmbHhjfJaI+LybRXvLWWZ/SWyZhKnRy/a3OM11qlNLsaOv70lvP2R08Srz8bwY+mOOafpH+/JotqKx26tPZs27bQc079COJrCrSWq7Cw1ptrxnrvv3peBSajiupz9N9o93+7o9s17NeylKcnOcnKUnq23q2yu7tT7GnOf0Y+0hanX6fS9MluvlHWWu+WtO8q0LeK4ye9+BQarjmbJ6uGOWPrP8It9RaeleiqklwS0KS1rXnmtO8tEzv1kPHgAAAG9FqB0xs6wyOHZIwehGKTnbRrz8ZVPXf4mFqczyY3STsTz0LzlfVRM4wPeV6VJGXoXvK+OlwMbYXk1UZ0/AiZMTCarecdCFeuzXLxyNOzHs5lzPYxwzMeJ2FNaQoXdSMF3R3tV8Gi8x25qRKTHZjDN68yl3gUalTQ8FlXr6J8TyZGNr19deJjMsd1lUqa8DEZDCbHfau60eC/Vp9fE6TgnDeaY1WWOn+Mfv9kvT4d/Xsz1hY3mKXtDDsPt53Fzc1I0qVKC1lOTeiSOspS2S0VrG8ymxG87Q7H2U7ObTZ3lyFm1Cpid3u1b+uvrT04Qi/sx1aXfxfU7XQaOujxcv+U91jixxjjZNSc2AGudq2xzCtolD9IWlSnY43Rju07lx9StFcoVUuLXdJcV4rgVmv4bTWRzV6W8/u05cUZOsd3LmaMnZkybfPD8xYXWtZ6vcm1rTqrvhNcJLy9uhyefTZdNblyxshWpak7SxVC6ubZ629edPwT4e4rdVoNNrY21GOLfGOv17tN8VMntRuvYY/iMeEnSn+9D+xR5fwjw3JO9Oavwn7xKNbQ4p7bwtLu+ub2WtxU1S5RXCK9hb8P4VpeGV5dPXafGZ6zPz/aOjfiwUwxtSHvDcKxLGLqFlhVhXu683pGFKDk37iXkz48MxW09Z7RHWZ+ER1lsm0V6S3HlH0Yscv1Ru824pTw6hJKUra3+cr6dzb9WL/m8i70nBtTn2vl9Ss+E9bfSOkfWfgkU097dbdI/NuHAtjWzbL8Yu2yvbXNWP7W8TuJN9+k9Yp+SR0WLhulw9qb/AB6pdcNK+CYW9tbWlJULW3p0aceChTgoxXsRNisVjaIbIjbsqnoAAAHinSpUt7sqcYb8nKW6tNZPm34nkREdh7PQAAAAAAAAAAAAAAAAAOIcBnSwnaNYTxf1IWeM03c731d2st5vy0ZweLbHqa8/hbr9VbXpfr5u3jvFkAcTbUrG3wvaLj9pZpQpwvpzio8o73rNLybOF19Yx6m8V81blja8uzsIq1a+E2Vevr2lS3pznr9pxTfxO3xzM0iZ8ljHZq7bHsTs820LjMmW6EaGOQjvzpR0ULxLmn3VO6XXk+9VPEuGV1ETlxe3+v8ALRlwxf1q93PGT82Y3s/zJSxjD9+nWt5uncW9TWKqw19enNdOXmmk+aOb02oyaTLz17x3j9kSlpx23h2blXM+FZwwK1x/B62/b3MdXF/SpzX0oSXSSf8Afkzt8Gempxxkp2lY1tF43hljcyAAAAAAAAAGCzJnnKWUabnmHHrWzlpqqUp71WS8KcdZP3EfNqsOnj/q2iP1+jG1607y1PmX0pMLt3OhlTL9a7kuCr3kuzh5qEdZNebiVGfjtI6Ya7++Ue2pj/GGrcw7b9pOYt6FXME7GjL9lYR7BL+Jeu/bJlTm4pqs3e20e7p/LTbNe3ig1avWuasq9xWnVqTespzk5Sb8WyvmZtO8tTwk29EtTC96445rztHveTMR1lVjQnLjL1UVOo43p8XTH60/SPq0W1FY7dVWFGEemr8Si1PFtTqOm/LHlH37o9817+57K1pXmF4PiuN3HyXCMPr3dRc1Tjqo+b5L2mNr1pG9pJmI7ppYbFsz3MFO+vbGy1+q5OpJe7h8SLbW447dWE5IX09hmIKPzeY7dy7pW8kvxMf66vk89JDB4tsmzhhkZVaNtRv6cebtp6y/lejfs1NtNXiv7mUXiUPqU6lGpKjWpzp1IPSUJxalF9zT5Ejv1hk8no+S4xa8AOqsn1oV8q4PUg/VlY0NP5EjKkjNxjqSa1iWcPah4G2KMtnrc8DLkNniUDC1Hkwo1Ia9CHlxsJha1IFblxtNoUJRIdqtcw5vz9UjUzpjM48vlUo+1JJ/FFtgjbHVIr2R6Uja9UalTTqeCzr10kYjG167fU8mWKyqVNWYi4w6wd3U7SomqMXx+8+4uOFcNnWX9Jk9iPzny+7fgw+kneezPJJLRLRI7WIiI2hYOndgmyX/AA3aQzjmG20xW7p/+FozXG1pSXNrpOS9qXDm2jq+E8P9DX0+SPWnt7o+6dgxcsc0925i7SAAAAtsRw3DsXtJ2GK2NveW1T6dKvTU4P2PgY3pXJHLeN4eTET0lrPMHo37PsXlKthsbzCKsuOlvV36ev7s9fcmiqzcF02TrXevw/lptp6T26IhW9FKr2r+T53h2X38Pe8vdU4kKeATv0yfl/LX/S+9mMuei/l3DryN1mLHbjFqcGmrenS+Twl4SalKTXk0b8PAsdJ3y25vd2ZV00RPWW3sLwTBsEoRtsHwq0sqUUoqNCjGC09i4lxjwYsPXHWI+EN8VrXtC+NrIAAAAAAAAAAAAAAAAAAAAAAAAAADlj0ich18v5plmm0ov9H41LfnJLhTudPXi/3tN5d73u45LjOknDm9NXtb9UHUU5bc0eLZmw3axZ5owehljG7yFPGrGCpU3Ulp8rpJaRlFvnNLg1zemvfpa8K4hXPSMWSfWj8/5bsOXmjlnu2LmjM+EZQwW4x3GrmNKhbxbSb9apPpCK6yf/zgWWfPTT45yXnpDda0UjeXH+B4fie1HaLCE6bdXF76VzcuPKlSct6b8lHVL2I4zFS+v1P/ALp3lX1icl/i7VjGMIqEElGK0SXRHc9lk+gaA9I7ZnQjQe0DBbbdqKcYYlThHhJPhGt4PXRS79U+9vneM6KNv6mkfH7ouox/5whOwvaV/gjMH6KxStu4Pis4wrNvhQq8o1fLpLw0f1SDwrW/0uTkv7NvynzasOTknaezrTnxR2Ce+gAAAAAA13nTbpkbJ7qWtO8eLX8NV8ns2pKL7p1Pox8UtWu4rdTxXT6bpE80+UfdpvmrRozN3pAZ9zNv29hdRwWzlwVOzbVRrxqv1tf3d3yKDUcX1GfpWeWPd90a+e9u3RrarVq16sq1erOpUm96U5yblJ97b5lXMzM7y0vMYyl9FNmjNqcWnjfLaI/3yY2vWveVSNvJ/SaRUZuPYa9MVZt8ekfdotqax7MKkaFNc035lVm4zqsvSs8se77y021F7duioklwSSK3JkvlnmvMzPv6tMzNushg8AJ1s72Z3ObpfpXEnUt8Jpy0TXCdxJc1HuXfL2Lw8tvEbkt32OEYfg9pCxwuzpW1CnyhTjovN978XxKzNW1p3lptvKru+BH5WGzKZewP9N3c6Eq7owpQ35NLVvjpojo/wz+Hv/iDVWw2vyVrG8zEbz322hL0el/qrzWZ2iHjH8H/AELfK1VZ1Yygpxk1o9NWtH7jT+JeBf8AgGt/povzVmItE9p2mZjafnDHV6b+lyckTv4obmrJOCZst3G+oKldRWlO6ppKpDz+0vB/ApMWe+GenZHreYaGzHlzEsr4nPDMSpreXrU6kfoVYdJR/t0LbHkrlrzVb4neGLNj10FsaxuGJZOo2Up61sNqSt5rru670H7np7DHfazzxbCpvXQm47btkK0SVDN6SM9nuz40YzDyVOcdTRem7GYW9SnqQsuLdrmqwxK5t8MsbjEruSjRtaUq02+6K1IVsG8sOVylfXlS/vLi/r/rLmrOtLzk2/zJURtG0M1nUqAWdeukuZjuMdXrt9TyWKyqVNTEVbGyne1OOqpRfrS/JFjw3h19fk69Kx3n9o97bixTln3M/CEKcFTpxUYxWiSO6x464qRSkbRCyiIrG0N7bBNkDxKrRzzme0/8HTlv4fbVI/rpLlVkvsr6q6vjyS16LhPDueY1GWOnhHn70rBi39azo86ZMAAAAAAAAAAAAAAAAAAAAAAAAAAAAAAAAAAAAAADHZhy/hOaMIuMDxq1jcWlzHdnF8Gn0lF9JJ8UzVmw0z0nHkjeJeWrFo2lzFnL0fM7ZbvZV8u0J4zYqW9SqUGlXgteClDnr4x1XlyOV1PCM+G2+L1o/NCvgtWenVh7bZhtdzTd0rW8wTF5bvCNXEZShCmur1qPl4LV+BprodZnmItWfn/LH0eS3eHRWyrZThuzbD5zdWN3i13FK5ut3RJc+zguajr7W+L6JdLoNBXRV87T3lLxYoxx708LBtAKN3aW1/a1rG9oQrW9xTlSq05rWM4SWjTXc0eWrF4mtu0kxv0lxbtNyRWyDm67wRqbtZPt7OpL69CTe7x6tcYvxizhtdpZ0macfh4fBW5KcltnQvo/Z9lmzKn6GxCs54jgqjRk5PjUoP8AVy8WtHF+SfU6ThGr/qMPJb2q/p4JeC/NXafBtMtm8AAAIdn3aplPZ9QccVu+3v5R3qdjQalVl3OXSEfF+zUhavX4dHHrzvPl4td8tcfdzZnzbXnLPDqWjuXhmGT1XyO1m0pR7qk+c/LgvA5jV8Tz6rpvtXyj9/NDvmtf4IAVrUqQozlx00XiVep4vp9P6tZ5p933ab56V7dVWNCEea3n4lDqOManP0rPLHu+6LbPe3boqFXMzad57tIeAAAAZ3JGV6ub8yWuCwco0ZN1bma+pRj9L2vgl4szx057bPYjeXUNvY21ha0rGyoRo0KEFTp04rRRiuSN98e8dGUw8zpeBCvh3a5qpul4EacLCaqtndXeG11c2VV06iWjemqa7mupJ0Gs1XCs39RpLctu3xjymPFniyXwW56TtKniF5d4jcO6vKvaVGktdNEkuiRo4lrtTxTPOp1dua09PLpHhEMc2S+a3Ped5WjWhWTDTMI1nzKlHNeBVbaMIq8oJ1bWfVTX1fKXL3PobNPl9Fffwe0ttLndqUW4zi4yi9GnzT7i5SEp2c5w/wAH5gjcXEpfILtKjdJfVWvqz0+6/g2Y2jcl0pa16VelCtRqRqU6kVKE4vVSi+TT6o34bParuLJ1ZbIVEboZwNCYHlowmGKnKBptTdjMNNbcc8UY0v8ABeGVlKcnGd/KL4RS4xpebejfkl1ImXas8sMZ6dGlKlXTqaWKxuLlLgmYvN2Or3OvA8mXi0qVG2YipZWVS9qaLWNNfSl+SLDh/D8mvvtHSsd5/aPe24sU5Z9zP0qVOhTVKlFRjHkjucOGmnpGPHG0Qsa1isbQ2/sS2OVM4XMMzZjt5QwShPWlSktHeTT5fuJ8315Lq1e8M4bOpn0uX2Y/P+EnDi5/Wns6lp06dKnGlShGEIJRjGK0UUuSS6I6yIiI2hOej0AAAAAAAAAAAAAAAAAAAAAAAAAAAAAAAAAAAAAAAAAAAAAABqX0j8orHMmRx+2o713gk+0bS4uhLRTXse7LyTKfjWn9Lg9JHev6eLRqKc1d/JovZBnF5Lz1Y4hWq7lldP5JeceHZTa9Z/uy3ZewoOHan+m1EWntPSUXFfktu7O5nbrEA+SlGEXKUkopatt8EgNDbVfSGhayrZfyBWhUqrWFbE9N6MX1VFcpP774d2vBnPa/jHLvj0/1+33RcufbpRz3dXVze3FS7vLipXr1ZOdSrUm5SnJ822+LZzlrTad7TvKJ3eYUZT48l3sq9ZxTDpPV9q3lH7y05M1adO8riFKEOS1fezmNVxHPq+l52jyjt/KHfLa/dcWtpdX1eNrY2tW4rS5U6UHKT9iIEzFY3lr7JTZbKM7XsFUlh1K1T/8AqK8Yv3LVmi2qxV8WM3iFevsfzrRg506NlX0+rTuNH/UkYxq8UvOeEYxXAsZwOoqeL4ZcWjfBOpD1ZeUlwfvN9b1v7M7somJ7LAzegADd3o+4RCnhuJ49OK7S4rK1pvuhBKT97kvcStPG0TLOrbWmpI5d2Wzy4JmE493mzy6fgapxMdlOVJdxptieTVQqQ0IeXFs1zC3nHQgXrs1TCm+BHmGLnraVhcMJznf0qUd2ncON1BacPXWr/q3i401ufFCRSd4Rc3sk+2ebU7vKW5hWKwqXeE6+qo8alvrz3e+P3fd3HtZ2nd631gWP4PmG0je4LiNG7pPn2cvWj4Sjzi/Mn4p3jozhlEb4Zw+6rvM3qnXrULajO4uKsKVKmtZznJRjFd7b4Ixnp1Jaj2g7cLO0pVcJyXVVxcyTjO/0+bpf8vX6UvHkvEiZdREdKfVrm23Zoi5up1JzrVqkqlScnKcpPWUpPm2+rIMy1rCvc8+JiMdWr668TyZYrSUm+OvAxFxY2FS9lvPWFFPjLv8ABFnw7hl9dbmnpSO8/tH+9G3FhnJO/gz1KlTo01SpRUYx5I7fFipgpGPHG0Qsa1isbQ2xsb2MXOdrinj+YKVShgVGWsY8YyvJJ/Rj3Q75excdWrvhvDZ1U+kyex+v8JOHDz9Z7OqLa2t7O3pWlpQhRoUYKnTp04qMYRS0SSXJJHW1rFY2jsnRGyqegAAAAAAAAAAAAAAAAAAAAAAAAAAAAAAAAAAAAAAAAAAAAAAAFG8tLe/tK9hd0lUoXNOVGrB8pQktGvczG1YvE1t2l5Mbxs4YzbgFbK2ZcSy9XbcrG4nSjJ/Whr6svbFp+04LUYZwZbY58JVt68tph11sfzM817PsKxCrU37mhT+SXDfPtKfq6vxa3ZfxHY8Oz/1Gmrae8dJ+SfitzUiUylKMIuc5KMYrVtvRJE7s2OYttW2yrmWrXyplS6lTwiDcLm5g9HePqk/8v/q8jleJ8TnNM4cM+r4z5/x+qFmzc3q17NNaNvRLVlFe9aVm1p2iEaZ26yuKdBL1p8X3HLa/jFsu+PT9K+fjP2j80PJnm3SvZVKJGSjIuRL/ADpey3ZSt7C3a+UXGmvH7Ee+X4GF7ckbkzs3rgmW8Hy3aqzwiyhQjp60+c6j75S5sq8s2vO9mi0zLI7vgaeVjsuLbDMQvKU69rZ1atOn9KUY6pf3J2l4Rrtditm02K1q17zEf7v8IbKYMmSJtSszELG6tbW+oTtby3p16NRaSp1IqUZLyZXxM1neGqJ2af2hbL/0PSqY5l2EpWcfWr22rlKivtR6uPeua/Cy0+q5/Vv3bqX36S1uTWwA6H2I7kchW+7zdzXcvPe/tob8Vto2ZxPRsKPEmVndnHV601M9ju+bqE1HmUTVaryYUKkNUQ8tGu0LSrEq81Wm0LeSINoa5aS21qCzRaOP0nYx3v55ljov7c/Fux9mviYzAK9ne3uHXCu8PvK9rWjyqUajhL3oRMx1gS2x2w7QrCCprG43EVy+UW8Jv36Jm6NRkjxZ88q1xtv2hVoOEMQtKOv1qdpHX46mU6rJJzyiWN5pzBj8t/HMau7xLio1Kj3F5RXBe402yWv7U7sZmZ7sJVr6I1y8WFe6S5M8l5usK1fXXiY7vFrKerPBe2GFzuGq1zrGl0XWX9kXnDeD21O2XP0p5eM/aEjDgm/rW7M3GMYRUIRUYpaJLodhSlcdYrWNohPiIiNobk2N7DrjNE6OZs2UJ0MHTU6Fu9YzvO5vrGn48304cS84bwuc+2XN7Pl5/wAJOLDzetbs6coUKFrQp21tRhSo0oqFOnCKjGEUtEklwSSOqiIrG0dk3sqHoAAAAAAAAAAAAAAAAAAAAAAAAAAAAAAAAAAAAAAAAAAAAAAAAAAc0+k/lj5FmHD81UIaU8So/J67X+bT5N+cGl/Acvx3By5K5o8enzhD1Ndp5lb0Xc0K1xbEso3FXSF7BXdtF8u0hwml4uOj/gMuBZ+W9sM+PWP9/wB7GmttM1Zj0itqE7KnLIGBXG7WrwTxOrB8YQa1VFeMlxl4NLqzdxnXcsf02Ofj9mWoybepDnRJt6Lmzl73rjrNrTtEIczERvK6pUlBavizjeI8RtrLctelI7R5++UDLlnJPueysaVzhuH3OL4ja4VZR3q93VjRprxk9NfJcz2I3naHvd1NgOXrHLeD22C4fBKnbw0ctONSX1pvxb4meTF4FoXUqXgQr4WuaqbpGi2FjypBgOZ6WD2E7OvbTqOMnKm4acdej7vM7j8N/i7FwPRW0mbHNtpma7bdd/Cd+3Xx6/BY6TXRpsc0tG/kjVWTqVJVJJJzk5aLktXqfPc1pyXtknxmZ+s7qu0807ypyipxcJJNNaNPk0aezHs572i5YhlfMdShbQ3bO7Xyi3XSKb4w9j+DRc6fL6Wm890is7wi5vZN4bBcUjVwG/whyXaWl12qX3KiX5xZ7W20vW1oMnY7bs4VUyRDOHrmZbdHry10MJhio1ERslWEwtKseZV56tNoWs1oytvG0tUufdquIwxDOt3GnLWFpCFsvOK1l8ZMsdLXlxR726kbQiJIZABtIDxKWnNgUqlbTkeC0rXCXU8mRj69zr1Md2KxqVm3zPJkUkp1ZqFOLlJ8ElzZ7SlslopSN5kiJmdoZexwiNLSrdJSnzUOi8+9nV8O4JXDtl1PW3l4R8fOfyTcWnivrXZSEJ1ZxpUoSnObUYxitW2+SSOhiJnpCW6D2R+j/wBjKjmXP9onJaTt8MmtUu6VZf8AZ/N1idHw/hG22XUR8I+/2+qXiwf5Xb9SUUoxSSXBJdDokp9AAAAAAAAAAAAAAAAAAAAAAAAAAAAAAAAAAAAAAAAAAAAAAAAAAAAIRtmyus1bPcTtKdLfubSHy220579PVtLxcd6PtIHEsHp9NaPGOsfJqzV5qS5IytmG7ypmGwzFYxjKtY1lVUJPRTXKUX4NNr2nHYM1tPkjLXvCBW01neFnieI3mL4jc4riFZ1bm7qyrVZv60pPVmF72yWm9u8vJned5eaEElvvm+RynGtbOS/9NTtHf3z5fL9ULUZN55IVtV3lAjAGwdhuGwvs8xuakU1YWtSvHXpJ6QT/AKmb9NXe+7Ond0O4Eq1N2Uw8OmarYmMwpypLuNFsLGaqM6RFyYWE1W84aEDJTZqmFJojWhjLW+26whWwGyxFL17a67PX7s4vX4xRK0NtrzVnjnwaZLNuSfZzmlZTzPQvK82rO5Xye68IN8JfwvR+Wp5I6bo1IzjGcJKUZJNNPVNd6JWKWULiPImVbHtcjZDJ8keS8lTmjTeN2MrarEr81Gq0I5nDMFtlbA7jF7hpygtyjTf7Sq/ox/N+CZXThm9tmrl3lzNXuKtzWqXNxUc6tacqk5PrJvVv3k6I26Q2qbl3Ho8ymlzYFOVZLlwPJFvUuEup5uLOteJcmePN1hWum+pju8Ws6rlxbPBVtLC4vHrFbtPrOXL2d5YaLhmfWzvWNq+c/t5tuPDbJ27M3a2VCzjpSjrJ85PmzsdHoMOhrtjjr4zPeU/Hirj7M3lzLOOZsxOnhGAYfVu7mpxaivVhH7Upcox8WWWHBk1F+THG8ttazadodR7LtiOC5EhTxXFOyxHHNNe3cfm7d91JPr958e7TVo6zQ8Lx6T179bfp8PunYsMU6z3bMLRuAAAAAAAAAAAAAAAAAAAAAAAAAAAAAAAAAAAAAAAAAAAAAAAAAAAAAB8aTTTWqYHFO1HKNbJedcRwh0XC2nUdxZvThKhNtx08uMfOLOF12nnTZ7U8O8fBW5a8lphEyuz5fQYrZZ8ImWq1uWsyqqqkuDPns2m081u8qzffu9KqmHj2poDZ/o/XMKeb72hNrerYfLd8XGcW/gSdJ7cx7mdO7oDQnTDZs+aI82ebPLiYTV5spTgR8mNjMLarDQrsuNqtC1nDQrslNmqYa+201oU8o06Mmt6re00l5KTf4GzRx/1Pk9x92jyzbjmBtXZZtVpYRTpZbzPXatI+ra3cuPYr7E/u9z6deHLbjtETtLKJbzo1KdanGrSnGcJpSjKL1Uk+qfUn1bFVG2GUDEjw0a7QxYnMOPYPlrD54njV5C3oR5a8ZTf2YrnJkbLWIjeWEw5sz3nq9zrinymrF0LKhrG1ttddxdZS75Pr7iF0iejBF5VkuR6KU7hLg5Hm4oTu0jzc3W1W88Tzd5us6t031PN3kradZvqeTI80qFxdT3aFNyfV9F7Tfp9Lm1duXDXf9PnLKtLXnasMraYNSpaTuWqs+76q/udPo+BYsO19RPNPl4fymY9NFeturIpJLRLRIvoiIjaEls/ZxsIzJnR0sSxaNTCcIlpLtakPnqy/04Po/tPh3bxbaLhWXU+tf1a/nPwb8eC1+s9IdNZUyfl7JWGLCsvYfC2pcHUnzqVZfanLnJ/BdNEdTp9Nj01OTHGybWkUjaGaN7IAAAAAAAAAAAAAAAAAAAAAAAAAAAAAAAAAAAAAAAAAAAAAAAAAAAAAAABp30mst/pLJ1rmCjRUq2E3KVSSXFUanqv+vs/iUvHMPPgjJH+M/lP+wj6mu9d/Jy81qtDkMuOM1Jx27TGyDMc0bSsHdOEnGT4p6M+d5KWxXnHbvE7Kqd6ztKpC7XeYPN1xC5T6nu71Jcg5mhlfNuG41UlpRpVdyv8A8qa3ZP2J6+w24sno7xZlWdp3dbwnCpCNSnNShJKUZJ6pp8mi3bnobDy13GMw8mHiUTVarGVGpDUiZce7CYWtSmVuXG02q0ftsx2neYza4DQmpRw+DqVtP82fJeyOn8x7p8fJE282VI2a2JLIA+OSAkeV9oeasoaUsJxBytU9Xa11v0vYucfY0bKZb4+zKLTDY+GekVauCjjOWq0J9Z2tZSi/4Zaae9kmurj/AChlz+bIVfSIylCG9TwnFpy+y4U18d4ynWU8pe88IzjvpGYnXhKll/A6FpqtFVuanayXiorRe/U1W1cz7MMZv5NWY3mbF8wXjv8AG8SrXdd8pVJcIruiuUV4Ii2vNp3ljM792KndrvMd3ihUvPvHm7zdbVLx955u83W87pvqebijKs3xPNx7o2t1dP5qk2vtPgveTNNoNRq/7Venn2j6s6YrX7QyNvgtKGkrmfaP7K4R/wBzodLwDFj9bUTzT5R0j7z+SVTSxHW3VkYQhTioU4qMVySWiL6lK468tI2j3JURERtCT5N2c5tz1cKlgGFznQUt2pdVfUoU/OfV+C1fgTdNo82rnbHHTz8GymO1+zozZ9sCytlB0sRxhRxnFIaSU60PmaUvuU3za+1LV9UkdLo+E4dP61/Wt+X0S8eCtOs9ZbRLZvAAAAAAAAAAAAAAAAAAAAAAAAAAAAAAAAAAAAAAAAAAAAAAAAAAAAAAAAAAFhj2DWmYcFvcDv46299QnQnpzSktNV4rmvFGvLjrmpOO3aXlo5o2lw3j+CX2W8avcCxKG5c2NaVGfc9OUl4NaNeDRwWbFbDknHbvCstE1naUcxahKD+VU1w5T8PE5Pj2imJ/qqdu1v2n9kHU4/8AOGPjXa6nNboi4p3TXU93F1Tu9eDZ693b92I7WrWrb0Ml5ku40q1JKnh9zUlpGpHpSk+jX1X1XDu1sNNniY5LfJtpbfpLdxNbH0Dy0YTDyYU5RNVq7sZhCto2f8OyTh0oqcK2KV4v5Nb66tffn3RXx5Ih5axXuwmNnNlze3F7cVby6rurXrzdSpOXFyk3q2aGKi6v3j0fHVS6ng8ut94bjxKv94binK5S+sebi3neLvG4t6l53M83eTK2neNnjzdRncyfU8FKVaT6ngqU7W8r8adCbT6taL4kzDoNVqP7dJ2+kfmzrivbtC7o4JWlxr1owXdFav3ltg/D2S3XNeI+HX+G+ulmfalfUMMs6GjVLfkvrT4/7F1p+E6TT9YrvPnPX+EimClPBdFi3JXlHZfnbOsoTwXBaqtZPjd1/m6CXfvP6XlFN+BM0+hz6r+3Xp5+DOuO1+0N65K9G3LOCune5ruHjN3HR9ik4W0X5fSn7Wk/snQaXguLF62aeafySqaeteturb1ta21lb07Wzt6VChSjuwp0oKMIruSXBIua1isbVjaEiI27Kp6AAAAAAAAAAAAAAAAAAAAAAAAAAAAAAAAAAAAAAAAAAAAAAAAAAAAAAAAAAAAA0p6Q+zGpjtks7YHbOd9Y0929pQXGtQXKaXWUOvfH91IouMaGctfT446x3+H8I2fHzRzQ5mlGMouMkmmtGn1OVtWLxNbRvEoU9eksHf4bUtW6tFOVH4x/2OM4nwm+kmcmLrT84+Pu96vzYJpO9eyyU2upTNCpGs0NxWhcPvPdxtHJHpAZqyvSp4fisI41YU9IxjWm416ce6NTjqvCSfmSsWrtTpbrDOuSY6S2rhfpIbPL2mnfPEcPqdY1bbtEvbBvX3Euusxz33hsjJVd3XpCbMqEHKliV5cvpGlZz1f82iPZ1WLz/I56oJmj0k768pztcp4SrFS4fKbpqdReMYL1U/Nsj31cz0pDGb+TUt7jN3iN1VvsQu6txcVpb1SrVlvSk/FsiTaZ6yw3UPli7xu83eXe+J4bvLvfEbm6nK88Qbqc7x955u83Up3Ta5nkyLedeTG4p785vdinJvouJ7Ws3nasbyREz2XNLDL+tx7Ls0+s3p8OZZYODazN15eWPf0/Lu3V097eC8o4JSXG4rSm+6PBFxg/D2KvXNaZ+HSPu310sR7Ur6jbW9utKNGMfHTj7y5waTBpo2xUiP1+vdIrStO0KpJZsvgWUM0ZmmoYBgN9fcdHOlRbhHzn9Fe1m7Fp8uf+3WZZVpa3aG0MtejFmrEHCtmXE7XCqT4ulT+freXBqC895+Ra4OB5r9csxX85+zdXTWn2m3cq7DtnuVnCtHCf0ldQ0fb37VVp+ENFBe7XxLnT8L02DrtvPv6/wkVw0qn0YxjFRikklokuSRYtr6AAAAAAAAAAAAAAAAAAAAAAAAAAAAAAAAAAAAAAAAAAAAAAAAAAAAAAAAAAAAAAAAA532y7B61GrcZsyPZupRm3Uu8OpR9aD5udJLmu+C4rpw4Lm+JcKmJnNp4+Mfb7ImbB/lVoRpptNaNcGmc8irC6wehW1nQfZTfTT1X7OhR6zgeHPPPh9Wfy+nh8vojZNNW3WvRi6+HXdvq5Um0vrQ4o5zUcM1Wm9uu8ecdYRL4b07wt02iva3pTaPR6VV94HpVme7j127R5uHyhnu4+fKG1wPNx87d957uPjrPqzzcfY9rVelOnOX7sWzbjw5cvSlZn4Q9itrdoV4Ydf1OPY7qfWb0J+Lg2ty/4bfGdm2unyT4Lingk3xrXCXhFalji/Dtp/u5PpH3ba6Sf8pXVPCbOn9KDm/vMssPBNHi6zXmn3z/2bq6fHXw3XUKdOkt2nCMF3RWhZ48VMUbY6xEe6Nm6IivZ7hCVSShCLlKT0SS1bZs23epplzY1tFzNuztMuV7ahL9ve/MQ079Jes15Jk7Dw3U5/ZrtHv6NlcN7eDauWvRasaW7XzbmGpcS5u3sY7kf/ckm2v4UW+DgVY65rb+6Pu3100f5S2RgmyHZxgDjOxypZ1KkeVS5TuJa9/zjej8tCzxcO0uH2aR8+v6t1cVK9oS+FOFKCp0oRhCK0UYrRJeRMiIjpDY9HoAAAAAAAAAAAAAAAAAAAAAAAAAAAAAAAAAAAAAAAAAAAAAAAAAAAAAAAAAAAAAAAAAAAABrbaHsMytnidTErX/ynFp6t3NGCcKsv9SHBN/eWj79eRWazhWHVetHq28/u05MNb9e0ueM4bIs85LlOpiGETubOGul5aJ1aWne9FrD+JI5rU8O1Gm62rvHnHZEvitTvCGEJrU6ttb1v1tCEvFriR8ukwZ/7lIn5MLUrbvC2ng9jLlCUP3Zf3K+/A9HftEx8J++7VOmxypSwK3f0a9ReaTI1vw7gn2bzH0YTpK+bw8Bh0upfyf7mqfw5Xwyfl/Lz+k95+gY9buX8n+4/wDhyPHJ+X8n9J73pYFS63NR+SRnH4cxeOSfpD2NJHjL3HBLRfSnVl/El+Rur+H9LHebT84+zKNLTxVY4TYR/Yb370myTTg2ip/hv8ZlnGnxx4K0LW2p/Qt6cfKKJePSafF7FIj5QzjHWvaFXlwRJ7M31JyajFNt8EkBI8G2cZ7x/deFZUxKrCXKpKi6dN/xz0j8STj0WozexSWcY7W7QnuCejHne+3Z4ziGHYXB8477rVF7I+r/AFFji4Hnv7cxH5/79W2umtPdsLAvRkyRh+7Uxq+v8VqLnFzVCk/ZH1v6ixxcDwU63mbfl/v1ba6asd2xsByZlTLEVHAcv2NlJLTtKdFdo/Ob9Z+1lni02HB/brEN1aVr2hmjeyAAAAAAAAAAAAAAAAAAAAAAAAAAAAAAAAAAAAAAAAAAAAAAAAAAAAAAAAAAAAAAAAAAAAAAAAAAAAiWYtlOz/NLlUxXLVr28+Lr26dGo33uUNN5+epDzaDTZ+t69fo12xUt3hrvGPRYy/XbngWZr6z14qFzSjXXlqtx/iVuTgOOf7d5j49fs1Tpo8JRK/8ARdzrRk3h+NYRdQXLfnUpyfs3WviQ78Czx7NolrnTW8JYK59HranQb7PA6FdLrTvaXH+aSI9uD6uO1d/nDH0F/JZS2GbVYvR5RqvyuaD/AO81zwvVx/h+n3Y+hv5C2G7VXyyjW9txRX/eP/C9X/w/T7nob+S4o7Adq1bnlqNNd872gvwmZxwnVz/j+cfd76DJ5Mpa+jTtHuEnWlhNtrzVW6ba/lizZXgmqnvtHzZRp7s3Y+itj1R/+ZZrsKH/ACKE6v47pIrwHJPtXj9fsyjTT4ykeHeixlmlo8VzNiVy1/kU4UU/epkmnAcUe3eZ/L7s401fGUqwvYFsvw3SUsBneTj9a6uakvfFNR+BMpwnSU/x3+Ms4wUjwTDCsr5awPT9DYBh1i11t7aEH70tSbjwYsXsViPk2RWte0MobWQAAAAAAAAAAAAAAAAAAAAAAAAAAAAAAAAAAAAAAAAAAAAAAAAAAAAAAAAAAAAAAAAAAAAAAAAAAAAAAAAAAAAAAAAAAAAAAAAAAAAAAAAAAAAAAAAAAAAAAAAAAAAAAAAAAAAAAAAAAAAAAAAAAAAAAAAAAAAAAAAAAAAAAAAAAAAAAAAAAAAAAAAAAAAAAAAAAAAAAAAAAAAAAAAAAAAAAAAAAAAAAAAAAAAAAAAAAAAAAAAAAAAAAAAAAAAAAAAAAAAAAAAAAAAAAAAAAAAAAAAAAAAAAAAAAAAAAAAAAAAAAAAAAAAAAAAAAAAAAAAAAAAAAAAAAAAAAAAAAAAAAAAAAAAAAAAAAAAAAAAAAAAAAAAAAAAAAAAAAAAAAAAAAAAAAAAAAAAAAAAAAAAAAAAAAAAAAAAAAAAAAAAAAAAAAAAAAAAAAAAAAAAAAAAAAAAAAAAAAAAAAAAAAAAAAAAAAAAAAAAAAAAAAAAAAAAAAAAAAAAAAAAAAAAAAAAAAAAAAAAAAAAAAAAAAAAAAAAAAAAAAAAAAAAAAAAAAAAAAAAAAAAAAAAAAAAAAAAAAAAAAAAAAAAAAAAAAAAAAAAAAAAAAAAAAAAAAAAAAAAAAAAAAAAAAAAAAAAAAAAAAAAAAAAAAAAAAAAAAAAAAAAAAAAAAAAAAAAAAAAAAAAAAAAAAAAAAAAAAAAAAAAAAAAAAAAAAAAAAAAAAAAAAAAAAAAAAAAAAAAAAAAAAAAAAAAAAAAAAAAAAAAAAAAAAAAAAAAAAAAAAAAAAAAAAAAAAAAAAAAAAAAAAAAAAAAAAAAAAAAAAAAAAAAAAAAAAAAAAAAAAAAAAAAAAAAAAAAAAAAAAAAAAAAAAAAAAAAAAAAAAAAAAAAAAAAAAAAAAAAAAAAAAAAAAAAAAAAAAAAAAAAAAAAAAAAAAAAAAAAAAAAAAAAAAAAAAAAAAAAAAAAAAAAAAAAAAAAAAAAAAAAAAAAAAAAAAAAAAAAAAAAAAAAAAAAAAAAAAAAAAAAAAAAAAAAAAAAAAAAAAAAAAAAAAAAAAAAAAAAAAAAAAAAAAAAAAAAAAAAAAAAAAAAAAAAAAAAAAAAAAAAAAAAAAAAAAAAAAAAAAAAAAAAAAAAAAAAAAAAAAAAAAAAAAAAAAAAAAAAAAAAAAAAAAAAAAAAAAAAAAAAAAAAAAAAAAAAAAAAAAAAAAAAAAAAAAAAAAAAAAAAAAAAAAAAAAAAAAAAAAAAAAAAAAAAAAAAAAAAAAAAAAAAAAAAAAAAAAAAAAAAAAAAAAAAAAAAAAAAAAAAAAAAAAAAAAAAAAAAAAAAAAAAAAAAAAAAAAAAAAAAAAAAAAAAAAAAAAAAAAAAAAAAAAAAAAAAAAAAAAAAAAAAAAAAAAAAAAAAAAAAAAAAAAAAAAAAAAAAAAAAAAAAAAAAAAAAAAAAAAAAAAAAAAAAAAAAAAAAAAAAAAAAAAAAAAAAAAAAAAAAAAAAAAAAAAAAAAAAAAAAAAAAAAAAAAAAAAAAAAAAAAAAAAAAAAAAAAAAAAAAAAAAAAAAAAAAAAAAAAAAAAAAAAAAAAAAAAAAAAAAAAAAAAAAAAAAAAAAAAAAAAAAAAAAAAAAAAAAAAAAAAAAAAAAAAAAAAAAAAAAAAAAAAAAAAAAAAAAAAAAAAAAAAAAAAAAAAAAAAAAAAAAAAAAAAAAAAAAAAAAAAAAAAAAAAAAAAAAAAAAAAAAAAAAAAAAAAAAAAAAAAAAAAAAAAAAAAAAAAAAAAAAAAAAAAAAAAAAAAAAAAAAAAAAAAAAAAAAAAAAAAAAAAAAAAAAAAAAAAAAAAAAAAAAAAAAAAAAAAAAAAAAAAAAAAAAAAAAAAAAAAAAAAAAAAAAAAAAAAAAAAAAAAAAAAAAAAAAAAAAAAAAAAAAAAAAAAAAAAAAAAAAAAAAAAAAAAAAAAAAAAAAAAAAAAAAAAAAAAAAAAAAAAAAAAAAAAAAAAAAAAAAAAAAAAAAAAAAAAAAAAAAAAAAAAAAAAAAAAAAAAAAAAAAAAAAAAAAAAAAAAAAAAAAAAAAAAAAAAAAAAAAAAAAAAAAAAAAAAAAAAAAAAAAAAAAAAAAAAAAAAAAAAAAAAAAAAAAAAAAAAAAAAAAAAAAAAAAAAAAAAAAAAAAAAAAAAAAAAAAAAAAAAAAAAAAAAAAAAAAAAAAAAAAAAAAAAAAAAAAAAAAAAAAAAAAAAAAAAAAAAAAAAAAAAAAAAAAAAAAAAAAAAAP/2Q==;" vertex="1" parent="1">
          <mxGeometry x="25.5" y="-250" width="409" height="410" as="geometry"/>
        </mxCell>
        <mxCell id="b_aVwPkQ-acBbLDw-5HQ-2" value="pending" style="rounded=1;whiteSpace=wrap;html=1;" vertex="1" parent="1">
          <mxGeometry x="170" y="620" width="120" height="60" as="geometry"/>
        </mxCell>
        <mxCell id="b_aVwPkQ-acBbLDw-5HQ-3" value="running" style="rounded=1;whiteSpace=wrap;html=1;" vertex="1" parent="1">
          <mxGeometry x="170" y="740" width="120" height="60" as="geometry"/>
        </mxCell>
        <mxCell id="b_aVwPkQ-acBbLDw-5HQ-4" value="succeed" style="rounded=1;whiteSpace=wrap;html=1;" vertex="1" parent="1">
          <mxGeometry x="170" y="850" width="120" height="60" as="geometry"/>
        </mxCell>
        <mxCell id="b_aVwPkQ-acBbLDw-5HQ-5" value="failed" style="rounded=1;whiteSpace=wrap;html=1;" vertex="1" parent="1">
          <mxGeometry x="290" y="850" width="120" height="60" as="geometry"/>
        </mxCell>
        <mxCell id="b_aVwPkQ-acBbLDw-5HQ-6" value="unknown" style="rounded=1;whiteSpace=wrap;html=1;" vertex="1" parent="1">
          <mxGeometry x="-80" y="660" width="120" height="60" as="geometry"/>
        </mxCell>
        <mxCell id="b_aVwPkQ-acBbLDw-5HQ-13" value="terminating" style="rounded=1;whiteSpace=wrap;html=1;" vertex="1" parent="1">
          <mxGeometry x="170" y="500" width="120" height="60" as="geometry"/>
        </mxCell>
        <mxCell id="b_aVwPkQ-acBbLDw-5HQ-14" value="" style="rounded=0;comic=1;strokeWidth=2;endArrow=blockThin;html=1;fontFamily=Comic Sans MS;fontStyle=1;exitX=0.5;exitY=1;exitDx=0;exitDy=0;entryX=0.5;entryY=0;entryDx=0;entryDy=0;" edge="1" parent="1" source="b_aVwPkQ-acBbLDw-5HQ-13" target="b_aVwPkQ-acBbLDw-5HQ-2">
          <mxGeometry width="50" height="50" relative="1" as="geometry">
            <mxPoint x="90" y="590" as="sourcePoint"/>
            <mxPoint x="90" y="640" as="targetPoint"/>
          </mxGeometry>
        </mxCell>
        <mxCell id="b_aVwPkQ-acBbLDw-5HQ-15" value="schedule" style="text;html=1;align=center;verticalAlign=middle;resizable=0;points=[];;autosize=1;" vertex="1" parent="1">
          <mxGeometry x="241" y="586" width="60" height="20" as="geometry"/>
        </mxCell>
        <mxCell id="b_aVwPkQ-acBbLDw-5HQ-16" value="" style="rounded=0;comic=1;strokeWidth=2;endArrow=blockThin;html=1;fontFamily=Comic Sans MS;fontStyle=1;exitX=0.5;exitY=1;exitDx=0;exitDy=0;entryX=0.5;entryY=0;entryDx=0;entryDy=0;" edge="1" parent="1" source="b_aVwPkQ-acBbLDw-5HQ-2" target="b_aVwPkQ-acBbLDw-5HQ-3">
          <mxGeometry width="50" height="50" relative="1" as="geometry">
            <mxPoint x="110" y="720" as="sourcePoint"/>
            <mxPoint x="160" y="670" as="targetPoint"/>
          </mxGeometry>
        </mxCell>
        <mxCell id="b_aVwPkQ-acBbLDw-5HQ-17" value="pull image" style="text;html=1;align=center;verticalAlign=middle;resizable=0;points=[];;autosize=1;" vertex="1" parent="1">
          <mxGeometry x="241" y="700" width="70" height="20" as="geometry"/>
        </mxCell>
        <mxCell id="b_aVwPkQ-acBbLDw-5HQ-18" value="" style="rounded=0;comic=1;strokeWidth=2;endArrow=blockThin;html=1;fontFamily=Comic Sans MS;fontStyle=1;exitX=0.5;exitY=1;exitDx=0;exitDy=0;entryX=0.5;entryY=0;entryDx=0;entryDy=0;" edge="1" parent="1" source="b_aVwPkQ-acBbLDw-5HQ-3" target="b_aVwPkQ-acBbLDw-5HQ-4">
          <mxGeometry width="50" height="50" relative="1" as="geometry">
            <mxPoint x="70" y="820" as="sourcePoint"/>
            <mxPoint x="120" y="770" as="targetPoint"/>
          </mxGeometry>
        </mxCell>
        <mxCell id="b_aVwPkQ-acBbLDw-5HQ-20" value="" style="rounded=0;comic=1;strokeWidth=2;endArrow=blockThin;html=1;fontFamily=Comic Sans MS;fontStyle=1;exitX=0.5;exitY=1;exitDx=0;exitDy=0;entryX=0.5;entryY=0;entryDx=0;entryDy=0;" edge="1" parent="1" source="b_aVwPkQ-acBbLDw-5HQ-4" target="b_aVwPkQ-acBbLDw-5HQ-13">
          <mxGeometry width="50" height="50" relative="1" as="geometry">
            <mxPoint x="90" y="920" as="sourcePoint"/>
            <mxPoint x="200" y="490" as="targetPoint"/>
            <Array as="points">
              <mxPoint x="230" y="970"/>
              <mxPoint x="90" y="970"/>
              <mxPoint x="90" y="450"/>
              <mxPoint x="230" y="450"/>
            </Array>
          </mxGeometry>
        </mxCell>
        <mxCell id="b_aVwPkQ-acBbLDw-5HQ-21" value="" style="rounded=0;comic=1;strokeWidth=2;endArrow=blockThin;html=1;fontFamily=Comic Sans MS;fontStyle=1;" edge="1" parent="1">
          <mxGeometry width="50" height="50" relative="1" as="geometry">
            <mxPoint x="555" y="95" as="sourcePoint"/>
            <mxPoint x="335" y="-85" as="targetPoint"/>
          </mxGeometry>
        </mxCell>
        <mxCell id="b_aVwPkQ-acBbLDw-5HQ-22" value="init-cotainer" style="rounded=1;whiteSpace=wrap;html=1;" vertex="1" parent="1">
          <mxGeometry x="555" y="85" width="120" height="60" as="geometry"/>
        </mxCell>
        <mxCell id="b_aVwPkQ-acBbLDw-5HQ-23" value="" style="rounded=0;comic=1;strokeWidth=2;endArrow=blockThin;html=1;fontFamily=Comic Sans MS;fontStyle=1;" edge="1" parent="1">
          <mxGeometry width="50" height="50" relative="1" as="geometry">
            <mxPoint x="495" y="195" as="sourcePoint"/>
            <mxPoint x="305" y="-45" as="targetPoint"/>
          </mxGeometry>
        </mxCell>
        <mxCell id="b_aVwPkQ-acBbLDw-5HQ-24" value="init-cotainer" style="rounded=1;whiteSpace=wrap;html=1;" vertex="1" parent="1">
          <mxGeometry x="495" y="185" width="120" height="60" as="geometry"/>
        </mxCell>
        <mxCell id="b_aVwPkQ-acBbLDw-5HQ-25" value="" style="rounded=0;comic=1;strokeWidth=2;endArrow=blockThin;html=1;fontFamily=Comic Sans MS;fontStyle=1;exitX=0.5;exitY=0;exitDx=0;exitDy=0;" edge="1" parent="1" source="b_aVwPkQ-acBbLDw-5HQ-28">
          <mxGeometry width="50" height="50" relative="1" as="geometry">
            <mxPoint x="720" y="100" as="sourcePoint"/>
            <mxPoint x="260" y="-10" as="targetPoint"/>
          </mxGeometry>
        </mxCell>
        <mxCell id="b_aVwPkQ-acBbLDw-5HQ-28" value="containers" style="rounded=1;whiteSpace=wrap;html=1;" vertex="1" parent="1">
          <mxGeometry x="216" y="270" width="120" height="60" as="geometry"/>
        </mxCell>
        <mxCell id="b_aVwPkQ-acBbLDw-5HQ-29" value="" style="rounded=0;comic=1;strokeWidth=2;endArrow=blockThin;html=1;fontFamily=Comic Sans MS;fontStyle=1;" edge="1" parent="1">
          <mxGeometry width="50" height="50" relative="1" as="geometry">
            <mxPoint x="-40" y="-20" as="sourcePoint"/>
            <mxPoint x="150" y="20" as="targetPoint"/>
          </mxGeometry>
        </mxCell>
        <mxCell id="b_aVwPkQ-acBbLDw-5HQ-30" value="network" style="rounded=1;whiteSpace=wrap;html=1;" vertex="1" parent="1">
          <mxGeometry x="-160" y="-60" width="120" height="60" as="geometry"/>
        </mxCell>
        <mxCell id="b_aVwPkQ-acBbLDw-5HQ-31" value="" style="rounded=0;comic=1;strokeWidth=2;endArrow=blockThin;html=1;fontFamily=Comic Sans MS;fontStyle=1;" edge="1" parent="1">
          <mxGeometry width="50" height="50" relative="1" as="geometry">
            <mxPoint x="50" y="-310" as="sourcePoint"/>
            <mxPoint x="230" y="-45" as="targetPoint"/>
          </mxGeometry>
        </mxCell>
        <mxCell id="b_aVwPkQ-acBbLDw-5HQ-32" value="ipc" style="rounded=1;whiteSpace=wrap;html=1;" vertex="1" parent="1">
          <mxGeometry x="-10" y="-370" width="120" height="60" as="geometry"/>
        </mxCell>
        <mxCell id="b_aVwPkQ-acBbLDw-5HQ-33" value="" style="rounded=0;comic=1;strokeWidth=2;endArrow=blockThin;html=1;fontFamily=Comic Sans MS;fontStyle=1;exitX=0.5;exitY=0;exitDx=0;exitDy=0;" edge="1" parent="1" source="b_aVwPkQ-acBbLDw-5HQ-28">
          <mxGeometry width="50" height="50" relative="1" as="geometry">
            <mxPoint x="186" y="300" as="sourcePoint"/>
            <mxPoint x="170" y="20" as="targetPoint"/>
          </mxGeometry>
        </mxCell>
        <mxCell id="b_aVwPkQ-acBbLDw-5HQ-34" value="" style="rounded=0;comic=1;strokeWidth=2;endArrow=blockThin;html=1;fontFamily=Comic Sans MS;fontStyle=1;exitX=0.5;exitY=0;exitDx=0;exitDy=0;" edge="1" parent="1" source="b_aVwPkQ-acBbLDw-5HQ-28">
          <mxGeometry width="50" height="50" relative="1" as="geometry">
            <mxPoint x="241" y="279" as="sourcePoint"/>
            <mxPoint x="225" y="-1" as="targetPoint"/>
          </mxGeometry>
        </mxCell>
      </root>
    </mxGraphModel>
  </diagram>
</mxfile>
